<svg xmlns="http://www.w3.org/2000/svg" width="1344" height="768" viewBox="0 0 1344 768"><path fill="#e486c9" d="M360.758 266.406c30.902-3.189 62.818 8.291 88.626 28.745 48.87 38.732 62.313 117.265 26.373 169.283l-.297.35c-5.286 8.563-14.887 19.97-22.478 26.597-6.307 5.539-22.914 18.647-30.924 20.291-13.433 9.07-39.564 13.331-55.569 13.023-33.804-.648-65.9-13.519-89.704-37.656-16.695-16.928-27.331-35.637-33.467-58.488-1.602-5.965-3.705-14.722-3.638-20.871-2.171-27.615 1.611-49.532 15.218-74.078q.242-.687.541-1.35c6.777-15.162 36.14-45.436 51.671-51.015 11.625-8.084 39.285-15.813 53.648-14.831m-93.659 96.722c-1.618 5.827-3.519 12.956-4.161 19.007-1.452 21.052.443 36.474 8.796 55.687 17.97 41.336 64.889 67.892 109.623 60.673a347 347 0 0 0 10.937-2.511c29.788-7.308 50.419-25.712 65.979-51.439 4.228-13.715 8.314-22.206 7.36-38.47-2.301-28.864-11.351-62.786-31.733-84.095-23.457-24.523-46.064-30.438-78.56-30.598-30.585 4.728-53.101 16.727-71.931 41.742-5.535 7.353-13.188 21.295-16.31 30.004"/><path fill="#2c2c2d" d="M274.363 410.159c-6.778-46.597 22.674-90.804 68.278-102.487s92.675 12.922 109.125 57.041-3.018 93.546-45.133 114.586a92.063 92.063 0 0 1-88.532-3.426 92.1 92.1 0 0 1-43.738-65.714"/><path fill="#5b5856" d="M274.363 410.159c1.45 1.657 1.602 3.042 2.046 5.137 3.265 15.397 10.396 30.328 21.075 41.964.957 1.043 4.525 4.792 5.634 5.038 17.294 21.519 56.278 29.336 81.919 22.942 2.625-.654 9.469-2.638 11.613-1.67a92.06 92.06 0 0 1-78.549-7.697 92.1 92.1 0 0 1-43.738-65.714"/><path fill="#5b5856" d="M283.548 421.632c-1.324-5.889-5.283-21.009-2.166-26.014.657 49.403 39.545 87.459 89.348 85.472 12.54-.501 22.063-4.378 33.622-8.554l-.566.298c-7.012 3.775-2.73 5.755-12.286 7.111-2.063-.561-13.77 2.243-17.503 2.658-11.373 1.265-20.309-1.608-30.063-2.471-1.563-.757-4.127-1.196-5.897-1.811-26.881-9.335-45.778-29.54-54.489-56.689"/><path fill="#343e45" d="M303.118 462.298c2.674.755 4.594 3.252 6.942 4.909 14 9.878 18.731 15.309 36.086 14.416l.214-.301-2.426-1.19c9.754.863 18.69 3.736 30.063 2.471 3.733-.415 15.44-3.219 17.503-2.658-4.315 3.895-28.132 3.944-34.464 3.611-.817-.043-1.016 1.744-1.191 2.388 9.034 2.804 31.418-.943 40.407-4.289 1.961-.73 8.686-2.57 10.381-2.356a92 92 0 0 1-9.983 4.271c-2.144-.968-8.988 1.016-11.613 1.67-25.641 6.394-64.625-1.423-81.919-22.942"/><path fill="#343e45" d="M283.548 421.632c-4.952-5.026-6.104-42.731-1.713-46.503l.977.616c.879 2.386-1.151 15.532-1.43 19.873-3.117 5.005.842 20.125 2.166 26.014"/><path fill="#42333a" d="M310.206 335.123c27.703-25.883 69.496-29.498 101.229-8.754 31.733 20.743 45.201 60.481 32.622 96.25-12.58 35.77-47.954 58.322-85.682 54.625a82.32 82.32 0 0 1-63.072-40.442 82.36 82.36 0 0 1 14.903-101.679"/><path fill="#343e45" d="m366.316 339.312 3.597.428c5.902.529 10.945 1.445 16.79 2.485 2.543 1.337 7.616 3.425 9.075 5.431-2.005.829-3.883 1.266-4.92 3.025.215 2.033 6.038 13.819 7.406 16.969 1.846 4.252 4.656 15.96 6.025 18.664l-1.31 2.134c1.717 1.554 6.107 2.358 8.474 2.764 3.792.701 7.058 1.063 10.868 1.478.947 30.276-24.354 56.33-54.242 57.756-10.32.492-20.322-3.214-29.361-7.902-.305-.401-3.503-2.723-4.445-3.939-7.936-10.247-13.706-12.93-19.354-24.942-.241-1.713-.94-4.654-1.395-6.364-7.081-26.641 12.407-63.382 42.002-64.316 1.328-.042 1.895.807 2.583 1.705l-.799 2.595c1.085 1.518 2.633 1.2 5.032 2.25l3.797-4.575.573-2.495z"/><path fill="#ad9167" d="m366.316 339.312 3.597.428c5.902.529 10.945 1.445 16.79 2.485 2.543 1.337 7.616 3.425 9.075 5.431-2.005.829-3.883 1.266-4.92 3.025.215 2.033 6.038 13.819 7.406 16.969 1.846 4.252 4.656 15.96 6.025 18.664l-1.31 2.134c1.717 1.554 6.107 2.358 8.474 2.764l.515 1.05 2.654 1.371c-.459.881-.123.666-.833.956-1.735-.333-5.325-.484-7.218-.612-6.965 5.213-21.881.86-23.21 12.211-12.036 11.01-13.038 33.658-16.125 36.964-3.726-1.445-7.154-22.034-10.047-27.732-7.644-13.08-16.865-13.417-30.393-17.417-2.499-.738-5.256-1.343-7.294-2.937l-.179-.982 1.939-.627 1.169-.585c9.679-2.063 15.244-4.128 24.534-7.774 4.91-3.282 7.212-5.198 10.32-10.201 5.947-1.579 9.268-15.188 9.986-20.477-.107-2.36-.504-4.715.773-6.655.265-2.129-.484-3.299-1.332-5.302z"/><path fill="#364d4e" d="M369.913 339.74c5.902.529 10.945 1.445 16.79 2.485 2.543 1.337 7.616 3.425 9.075 5.431-2.005.829-3.883 1.266-4.92 3.025.215 2.033 6.038 13.819 7.406 16.969 1.846 4.252 4.656 15.96 6.025 18.664l-1.31 2.134c-4.804-2.645-12.804-3.965-17.175-7.016-11.528-8.046-10.914-29.927-17.102-40.552z"/><path fill="#574c35" d="m366.316 339.312 3.597.428-1.211 1.14c6.188 10.625 5.574 32.506 17.102 40.552 4.371 3.051 12.371 4.371 17.175 7.016 1.717 1.554 6.107 2.358 8.474 2.764l.515 1.05c-7.851-1.407-20.692-4.855-27.452-8.606-1.05.584-2.033.551-3.243.661-2.877-.91-5.38-3.633-7.655-5.733-4.069-7.45-5.163-15.807-6.347-24.164-.107-2.36-.504-4.715.773-6.655.265-2.129-.484-3.299-1.332-5.302z"/><path fill="#faf9ea" d="M367.271 354.42c-.107-2.36-.504-4.715.773-6.655 3.27 12.475 6.237 27.701 16.472 35.891-1.05.584-2.033.551-3.243.661-2.877-.91-5.38-3.633-7.655-5.733-4.069-7.45-5.163-15.807-6.347-24.164"/><path fill="#967f54" d="M319.502 395.066c5.35-.579 19.13 1.999 24.229 3.886l-.457-2.294c5.769-.872 20.455 19.542 21.302 25.541-1.469-.495-4.771-4.826-7.387-6.779-7.644-13.08-16.865-13.417-30.393-17.417-2.499-.738-5.256-1.343-7.294-2.937"/><path fill="#efe4bd" d="M373.618 378.584c2.275 2.1 4.778 4.823 7.655 5.733 1.21-.11 2.193-.077 3.243-.661 6.76 3.751 19.601 7.199 27.452 8.606l2.654 1.371c-.459.881-.123.666-.833.956-1.735-.333-5.325-.484-7.218-.612l-.57-.093c-6.299-1.125-9.593-3.35-15.496-4.856q-.591.252-1.19.485c-3.399 1.321-6.83-2.344-11.842-4.59-1.998-2.498-2.443-3.432-3.855-6.339"/><path fill="#efe4bd" d="M346.965 385.098c-2.327 4.289-22.263 11.208-25.703 8.359l1.169-.585c9.679-2.063 15.244-4.128 24.534-7.774"/><path fill="#574c35" d="M366.712 342.463c.848 2.003 1.597 3.173 1.332 5.302-1.277 1.94-.88 4.295-.773 6.655-.718 5.289-4.039 18.898-9.986 20.477-3.108 5.003-5.41 6.919-10.32 10.201-9.29 3.646-14.855 5.711-24.534 7.774l.49-2.304c2.772-2.366 14.326-4.297 18.64-6.487 8.227-4.177 11.006-5.862 14.331-14.33 3.342-7.638 5.169-11.178 6.244-19.468l.206-.75 3.797-4.575z"/><path fill="#c7bba5" d="M366.712 342.463c.848 2.003 1.597 3.173 1.332 5.302-1.277 1.94-.88 4.295-.773 6.655-.718 5.289-4.039 18.898-9.986 20.477 4.896-11.574 6.851-17.594 8.854-29.939z"/><path fill="#967f54" d="M406.571 393.977c1.893.128 5.483.279 7.218.612-12.731 4.259-18.114 4.33-30.428 11.599 1.329-11.351 16.245-6.998 23.21-12.211"/><path fill="#2c2c2d" d="M355.892 369.751c.106-2.797 1.662-15.952 2.641-18.093 1.865-1.634.932-1.23 3.603-1.375-1.075 8.29-2.902 11.83-6.244 19.468"/><path fill="#404453" d="M296.385 402.847c.137-1.322 1.391-2.971 1.393-3.194.028-4.23-.271-9.071.063-13.267a64.48 64.48 0 0 1 22.686-44.239c4.025-3.435 12.94-11.341 17.86-10.957 1.818 2.864 3.438 7.723 4.361 11.06l6.265-1.234c4.973-1.057 12.067-1.343 17.303-1.704l.396 3.151-.573 2.495-3.797 4.575c-2.399-1.05-3.947-.732-5.032-2.25l.799-2.595c-.688-.898-1.255-1.747-2.583-1.705-29.595.934-49.083 37.675-42.002 64.316.455 1.71 1.154 4.651 1.395 6.364 5.648 12.012 11.418 14.695 19.354 24.942.942 1.216 4.14 3.538 4.445 3.939 9.039 4.688 19.041 8.394 29.361 7.902 29.888-1.426 55.189-27.48 54.242-57.756l2.833-.072c2.382-.075 4.632-.375 6.996-.654l.427.087c1.709.33 1.792.372 3.454.048-.262 10.964-.207 17.84-4.252 28.375-9.652 25.474-35.69 43.58-62.877 43.737-3.72.021-6.01-1.175-9.684.438-3.776 1.659-10.938-2.366-15.45-2.32-2.777-.416-6.045-2.027-8.685-3.173a159 159 0 0 1-6.685-4.333c-10.698-7.382-26.654-26.435-28.867-38.477.293-3.322-1.961-10.342-3.146-13.499"/><path fill="#3a7169" d="M314.919 413.663c5.648 12.012 11.418 14.695 19.354 24.942.942 1.216 4.14 3.538 4.445 3.939l-.521 1.278 1.252 1.787c-12.491 4.21-27.798-22.223-24.53-31.946"/><defs><linearGradient id="a" x1="360.951" x2="299.057" y1="410.95" y2="437.092" gradientUnits="userSpaceOnUse"><stop offset="0" stop-color="#672a6e"/><stop offset="1" stop-color="#3f7e89"/></linearGradient></defs><path fill="url(#a)" d="m291.118 361.982.67.662c.692-.788.89-1.043 1.928-1.275-1.105 2.295-1.174 4.379-.61 6.85l-.636 1.114 1.676.778c-3.387 11.298-4.972 23.601-2.293 35.241 1.938 4.787 3.677 8.347 6.02 12.959l.506-.086.495-1.745.657-.134c2.213 12.042 18.169 31.095 28.867 38.477q3.288 2.25 6.685 4.333c2.64 1.146 5.908 2.757 8.685 3.173 20.392 8.964 31.475 1.606 49.086 1.589-.255 1.055-.244 1.212-.759 2.156-1.161.558-2.824 1.228-3.704 2.096 1.545-.403 3.839-1.251 5.223-.775-6.841 4.562-17.384 6.027-25.4 6.674l-.536.125c-6.101 1.369-18.348-1.028-24.803-2.642l-.127.383.518.091c4.099.755 3.708 2.048 7.718 3.065 4.863 1.234 9.715 1.069 14.626 1.855-2.767.252-4.464.352-7.235.298a82.32 82.32 0 0 1-63.072-40.442 82.36 82.36 0 0 1-4.185-74.82"/><path fill="#404453" d="m291.118 361.982.67.662c.692-.788.89-1.043 1.928-1.275-1.105 2.295-1.174 4.379-.61 6.85l-.636 1.114c-7.226 14.407-5.138 37.188-.693 52.306 9.504 32.323 43.179 52.621 76.437 52.43l-.536.125c-6.101 1.369-18.348-1.028-24.803-2.642l-.127.383.518.091c4.099.755 3.708 2.048 7.718 3.065 4.863 1.234 9.715 1.069 14.626 1.855-2.767.252-4.464.352-7.235.298a82.32 82.32 0 0 1-63.072-40.442 82.36 82.36 0 0 1-4.185-74.82"/><path fill="#464861" d="M330.1 460.486c-.765-2.138-18.816-14.965-21.311-22.511.575.13 17.991 21.026 26.294 21.181 2.64 1.146 5.908 2.757 8.685 3.173 20.392 8.964 31.475 1.606 49.086 1.589-.255 1.055-.244 1.212-.759 2.156-1.161.558-2.824 1.228-3.704 2.096-.586.427-1.081.577-1.804.684-19.769 2.91-39.526 3.011-56.487-8.368"/><path fill="#3a7169" d="M291.853 405.352c1.938 4.787 3.677 8.347 6.02 12.959l.506-.086.495-1.745.657-.134c2.213 12.042 18.169 31.095 28.867 38.477q3.288 2.25 6.685 4.333c-8.303-.155-25.719-21.051-26.294-21.181 2.495 7.546 20.546 20.373 21.311 22.511-1.265-.037-6.138-2.45-7.37-3.126-13.485-7.391-30.749-37.206-30.877-52.008"/><defs><linearGradient id="b" x1="428.642" x2="408.171" y1="362.292" y2="370.487" gradientUnits="userSpaceOnUse"><stop offset="0" stop-color="#c5949f"/><stop offset="1" stop-color="#8cacbf"/></linearGradient></defs><path fill="url(#b)" d="M396.515 347.573c5.223-2.071 13.764-3.616 19.364-3.812 12.183 11.204 19.308 27.004 21.554 43.257.102 2.902.489 2.119-.884 3.822l-4.399 1.124c-2.364.279-4.614.579-6.996.654l-2.833.072c-3.81-.415-7.076-.777-10.868-1.478-2.367-.406-6.757-1.21-8.474-2.764l1.31-2.134c-1.369-2.704-4.179-14.412-6.025-18.664-1.368-3.15-7.191-14.936-7.406-16.969 1.037-1.759 2.915-2.196 4.92-3.025z"/><path fill="#75afbe" d="m395.778 347.656.737-.083c1.447 3.204 5.468 4.638 8.072 7.305 10.596 10.846 15.221 23.289 17.734 37.812-3.81-.415-7.076-.777-10.868-1.478-2.367-.406-6.757-1.21-8.474-2.764l1.31-2.134c-1.369-2.704-4.179-14.412-6.025-18.664-1.368-3.15-7.191-14.936-7.406-16.969 1.037-1.759 2.915-2.196 4.92-3.025"/><path fill="#97878b" d="M437.433 387.018c.102 2.902.489 2.119-.884 3.822l-4.399 1.124c-2.364.279-4.614.579-6.996.654 2.245-2.734.785-4.56 6.924-5.011 1.51-.111 3.755-.434 5.355-.589"/><path fill="#97878b" d="m338.387 331.19.878-1.257c12.925-6.528 31.498-6.68 45.502-3.709 3.197.878 6.615 1.678 9.581 3.119l-5.031 9.162c-.82 1.129-1.927 2.55-2.614 3.72-5.845-1.04-10.888-1.956-16.79-2.485l-3.597-.428c-5.236.361-12.33.647-17.303 1.704l-6.265 1.234c-.923-3.337-2.543-8.196-4.361-11.06"/><defs><linearGradient id="c" x1="360.936" x2="361.572" y1="333.567" y2="324.476" gradientUnits="userSpaceOnUse"><stop offset="0" stop-color="#a28588"/><stop offset="1" stop-color="#c991a4"/></linearGradient></defs><path fill="url(#c)" d="m338.387 331.19.878-1.257c12.925-6.528 31.498-6.68 45.502-3.709-.303.976-.669 1.871-.658 2.882-3.034 2.315-37.121-2.75-41.493 6.522.5 2.956 3.567 4.973 6.397 5.388l-6.265 1.234c-.923-3.337-2.543-8.196-4.361-11.06"/><path fill="#7d7d77" d="M394.348 329.343c6.881 4.666 15.481 8.215 20.991 14.005l.54.413c-5.6.196-14.141 1.741-19.364 3.812l-.737.083c-1.459-2.006-6.532-4.094-9.075-5.431.687-1.17 1.794-2.591 2.614-3.72z"/><path fill="#5b5856" d="M394.348 329.343c6.881 4.666 15.481 8.215 20.991 14.005-9.587-1.902-16.506-5.155-26.022-4.843z"/><path fill="#364d4e" d="M294.146 370.111c1.145-3.687 1.634-6.45 3.926-9.51l.524.3c-1.636 4.106-4.054 9.984-3.407 14.53l.259-.818c-.045 5.188-.584 24.484.937 28.234 1.185 3.157 3.439 10.177 3.146 13.499l-.657.134-.495 1.745-.506.086c-2.343-4.612-4.082-8.172-6.02-12.959-2.679-11.64-1.094-23.943 2.293-35.241"/><path fill="#464861" d="m310.206 335.123.216 1.166c-2.041 2.214-10.932 12.026-11.337 14.433 4.093-.971 4.039-5.313 5.607-4.65-2.574 4.77-8.938 18.497-11.586 22.147-.564-2.471-.495-4.555.61-6.85-1.038.232-1.236.487-1.928 1.275l-.67-.662a82.3 82.3 0 0 1 19.088-26.859"/><defs><linearGradient id="d" x1="478.907" x2="410.982" y1="332.883" y2="371.196" gradientUnits="userSpaceOnUse"><stop offset="0" stop-color="#8ef5fa"/><stop offset="1" stop-color="#ccb5d4"/></linearGradient></defs><path fill="url(#d)" d="M360.758 266.406c30.902-3.189 62.818 8.291 88.626 28.745 48.87 38.732 62.313 117.265 26.373 169.283l-.297.35c-5.286 8.563-14.887 19.97-22.478 26.597-1.563.362-5.057-.369-6.764-.659l-18.201 10.342-.256-.146c.993-1.642 1.267-2.233 1.358-4.154l.261-.117c1.513.278 7.327-1.891 7.806-2.918 2.34-5.016 6.633-7.178 11.395-10.131.824.102 1.176.152 1.955.388l.614.189-.156-1.735c1.175-3.403 9.25-6.96 10.124-8.84 4.304-9.257 1.808-6.125 9.6-10.795.728-3.545-.871-11.007-1.79-14.543-2.898 4.455-13.042 21.543-17.614 22.64.283-1.151 10.405-14.99 12.254-18.175.325-1.376.98-2.54 1.663-3.771-2.553-.177-10.358 16.672-16.916 19.507 16.589-19.797 27.037-42.592 28.24-68.658 1.488-32.245-12.084-61.213-33.652-84.51-3.894-4.206-43.817-31.711-47.202-31.824l.075 1.857c-5.129-2.194-19.95-4.706-25.61-5.107-2.534-.709-6.049-1.514-7.407-3.627-1.077-1.677-4.646-1.532-7.072-1.789-10.272.725-19.593 2.937-29.419 6.118-2.328.754-3.903 1.341-6.403 1.447l-.242-.519 1.365-.621c1.322-.331 9.372-3.281 10.998-3.838 15.232-5.216 22.297-7.287 38.33-7.86-1.371-.404-5.669-.836-7.325-1.043l4.128-1.645c-2.198.004-4.179-.223-6.361-.438"/><path fill="#97abbf" d="M355.687 274.805c2.702-.058 23.378.429 23.882.283 39.367 13.617 69.873 26.401 90.527 66.749 11.556 22.576 15.773 60.465 9.056 86.805-.467 1.831-13.466 22.224-15.073 23.98l-.511.105c.325-1.376.98-2.54 1.663-3.771-2.553-.177-10.358 16.672-16.916 19.507 16.589-19.797 27.037-42.592 28.24-68.658 1.488-32.245-12.084-61.213-33.652-84.51-3.894-4.206-43.817-31.711-47.202-31.824l.075 1.857c-5.129-2.194-19.95-4.706-25.61-5.107-2.534-.709-6.049-1.514-7.407-3.627-1.077-1.677-4.646-1.532-7.072-1.789"/><path fill="#ede0ea" d="M370.316 269.532c14.786.257 29.694 4.412 42.636 11.175 3.303 1.726 5.376 1.259 8.747 4.418-1.404-.524-4.132-2.102-4.603-2.223-11.185-2.874-25.898-8.108-37.527-7.814-.504.146-21.18-.341-23.882-.283-10.272.725-19.593 2.937-29.419 6.118-2.328.754-3.903 1.341-6.403 1.447l-.242-.519 1.365-.621c1.322-.331 9.372-3.281 10.998-3.838 15.232-5.216 22.297-7.287 38.33-7.86"/><path fill="#bebac6" d="M446.218 490.722c5.183-5.479 23.468-24.857 29.242-25.938-5.286 8.563-14.887 19.97-22.478 26.597-1.563.362-5.057-.369-6.764-.659"/><path fill="#e28b8c" d="M248.3 367.106c-1.189 10.416-2.947 14.452-2.482 25.309 1.757-8.08-.135-16.954 4.592-27.211l.567-.02c-.132 2.739-.331 3.91-.867 6.594-.207-.62 1.33 3.927 1.056 2.535 1.96 9.963 1.189 24.56 2.684 34.62 4.765 32.065 20.24 58.02 46.683 76.685 11.796 8.327 20.137 13.849 34.341 17.801 25.117 6.987 44.228 6.522 69.005-1.084 1.458-.448 14.535-3.823 14.921-3.527-3.237 2.386-7.039.775-11.148 3.725l.281 2.473c.72.183 13.354-3.339 14.468-4.431 2.043-2.003 3.051-2.882 5.96-4.104l.758.293c-.091 1.921-.365 2.512-1.358 4.154l.256.146 18.201-10.342c1.707.29 5.201 1.021 6.764.659-6.307 5.539-22.914 18.647-30.924 20.291-13.433 9.07-39.564 13.331-55.569 13.023-33.804-.648-65.9-13.519-89.704-37.656-16.695-16.928-27.331-35.637-33.467-58.488-1.602-5.965-3.705-14.722-3.638-20.871.506-2.34.183-2.908 1.05-5.47l.627.082c.587 1.938.966 4.782 2.986 5.323.39-11.108.039-30.786 3.957-40.509"/><defs><linearGradient id="e" x1="299.937" x2="329.413" y1="503.954" y2="453.745" gradientUnits="userSpaceOnUse"><stop offset="0" stop-color="#a45956"/><stop offset="1" stop-color="#b46b78"/></linearGradient></defs><path fill="url(#e)" d="M248.3 367.106c-1.189 10.416-2.947 14.452-2.482 25.309 1.757-8.08-.135-16.954 4.592-27.211l.567-.02c-.132 2.739-.331 3.91-.867 6.594-5.13 5.672-1.958 43.271.138 51.482 16.046 62.883 79.15 104.944 143.186 91.751 5.606-1.155 19.21-6.436 24.366-3.688l-1.118 1.265.179.269c1.932-.724 3.172-1.413 5.197-1.185-13.433 9.07-39.564 13.331-55.569 13.023-33.804-.648-65.9-13.519-89.704-37.656-16.695-16.928-27.331-35.637-33.467-58.488-1.602-5.965-3.705-14.722-3.638-20.871.506-2.34.183-2.908 1.05-5.47l.627.082c.587 1.938.966 4.782 2.986 5.323.39-11.108.039-30.786 3.957-40.509"/><path fill="#ad9167" d="m395.776 285.328-.075-1.857c3.385.113 43.308 27.618 47.202 31.824 21.568 23.297 35.14 52.265 33.652 84.51-1.203 26.066-11.651 48.861-28.24 68.658-3.154 3.067-8.168 8.209-11.548 10.596-8.383 10.656-28.481 17.62-40.837 22.128-5.75-1.929-15.044.336-20.147-.165l6.083-1.74-.509-.787a347 347 0 0 0 10.937-2.511c29.788-7.308 50.419-25.712 65.979-51.439 4.228-13.715 8.314-22.206 7.36-38.47-2.301-28.864-11.351-62.786-31.733-84.095-23.457-24.523-46.064-30.438-78.56-30.598 2.187-.652 9.126-1.095 11.797-1.328 1.535-1.248 7.379-.881 10.562-1.36-9.228-2.745-26.242.3-35.659 2.473-3.051.704-9.948 3.71-12.447 2.501-1.485.324-2.319.821-3.37.207 12.756-7.227 40.135-10.731 54.911-8.733 4.52.611 18.522 3.901 20.328 3.994-1.561-1.194-3.976-2.687-5.686-3.808"/><path fill="#2c2c2d" d="M367.137 290.054c31.213 2.159 56.909 11.357 78.096 35.777a106.18 106.18 0 0 1 25.876 77.227c-.811 10.802-5.582 33.323-12.836 41.487 4.228-13.715 8.314-22.206 7.36-38.47-2.301-28.864-11.351-62.786-31.733-84.095-23.457-24.523-46.064-30.438-78.56-30.598 2.187-.652 9.126-1.095 11.797-1.328"/><path fill="#5b5856" d="m395.776 285.328-.075-1.857c3.385.113 43.308 27.618 47.202 31.824 21.568 23.297 35.14 52.265 33.652 84.51-1.203 26.066-11.651 48.861-28.24 68.658-3.154 3.067-8.168 8.209-11.548 10.596 2.251-3.079 8.923-9.667 11.903-13.142 13.423-15.65 20.084-29.809 24.397-49.774l-.661-.206c1.517-4.948 1.566-21.803 1.228-27.165-2.194-34.805-21.861-67.508-51.771-85.488-9.807-5.896-32.349-15.406-44.164-14.59-9.228-2.745-26.242.3-35.659 2.473-3.051.704-9.948 3.71-12.447 2.501-1.485.324-2.319.821-3.37.207 12.756-7.227 40.135-10.731 54.911-8.733 4.52.611 18.522 3.901 20.328 3.994-1.561-1.194-3.976-2.687-5.686-3.808"/><path fill="#c7bba5" d="M329.593 293.668c80.363-29.2 157.776 38.176 143.474 122.475l-.661-.206c1.517-4.948 1.566-21.803 1.228-27.165-2.194-34.805-21.861-67.508-51.771-85.488-9.807-5.896-32.349-15.406-44.164-14.59-9.228-2.745-26.242.3-35.659 2.473-3.051.704-9.948 3.71-12.447 2.501"/><path fill="#b68f73" d="M329.593 293.668c2.499 1.209 9.396-1.797 12.447-2.501 9.417-2.173 26.431-5.218 35.659-2.473-3.183.479-9.027.112-10.562 1.36-2.671.233-9.61.676-11.797 1.328-30.585 4.728-53.101 16.727-71.931 41.742-5.535 7.353-13.188 21.295-16.31 30.004-1.618 5.827-3.519 12.956-4.161 19.007-1.452 21.052.443 36.474 8.796 55.687 17.97 41.336 64.889 67.892 109.623 60.673l.509.787-6.083 1.74c5.103.501 14.397-1.764 20.147.165l-12.338 2.854c-1.762-.383-4.177-1.443-5.846-1.638-11.035-1.294-21.99-1.435-32.909-3.736-3.056-.644-10.461-2.513-13.114-2.16-10.337-1.941-31.597-18.248-39.821-25.93-4.726-4.414-13.501-17.099-17.061-23.045-3.566-5.956-8.137-19.127-13.19-23.653-9.321-25.765-3-61.156 11.567-83.884.627-2.278 8.746-13.782 10.972-15.272 2.584-1.701 13.471-12.294 15.575-14.82 1.136-3.324 21.955-15.208 26.458-16.028 1.051.614 1.885.117 3.37-.207"/><path fill="#cf91a8" d="M254.898 333.602c.559 7.157-9.418 15.584-6.296 18.934 1.96-3.212 4-8.733 6.059-10.941l.937.044c.253 2.205-6.084 23.427-7.298 25.467-3.918 9.723-3.567 29.401-3.957 40.509-2.02-.541-2.399-3.385-2.986-5.323l-.627-.082c-.867 2.562-.544 3.13-1.05 5.47-2.171-27.615 1.611-49.532 15.218-74.078"/><path fill="#bd6765" d="M261.651 423.879c5.053 4.526 9.624 17.697 13.19 23.653 3.56 5.946 12.335 18.631 17.061 23.045 8.224 7.682 29.484 23.989 39.821 25.93l.509.914-.832 1.302c-33.562-11.157-62.431-39.649-69.749-74.844"/><path fill="#f19ee6" d="m320.988 281.23-1.365.621.242.519c2.5-.106 4.075-.693 6.403-1.447 9.826-3.181 19.147-5.393 29.419-6.118 2.426.257 5.995.112 7.072 1.789 1.358 2.113 4.873 2.918 7.407 3.627-12.167-.831-22.322.32-34.09 3.374-.581.151-16.366 2.934-15.979 2.946l.618-1.306-.641-.241c-1.973 1.116-2.266 1.279-4.494 1.641l-.653-.761c.958-3.665 2.483-4.633 5.761-5.848z"/><path fill="#f2c6f2" d="M307.11 281.237c11.625-8.084 39.285-15.813 53.648-14.831 2.182.215 4.163.442 6.361.438l-4.128 1.645c1.656.207 5.954.639 7.325 1.043-16.033.573-23.098 2.644-38.33 7.86-1.626.557-9.676 3.507-10.998 3.838l-.3-1.204c9.538-5.822 19.979-8.031 30.779-9.836 1.13-.189-.999-1.7 1.096-1.241-13.854-3.479-40.668 12.573-45.453 12.288"/><defs><linearGradient id="f" x1="360.762" x2="360.457" y1="500.298" y2="503.353" gradientUnits="userSpaceOnUse"><stop offset="0" stop-color="#b18769"/><stop offset="1" stop-color="#a4725d"/></linearGradient></defs><path fill="url(#f)" d="M331.723 496.507c2.653-.353 10.058 1.516 13.114 2.16 10.919 2.301 21.874 2.442 32.909 3.736 1.669.195 4.084 1.255 5.846 1.638-22.075 1.752-31.494 1.215-52.192-5.318l.832-1.302z"/><path fill="#9e5557" d="M284.19 324.723c2.848-4.833 10.809-11.79 15.575-14.82-2.104 2.526-12.991 13.119-15.575 14.82"/><path fill="#e486c9" d="M547.543 321.319c10.927-6.115 42.164-5.096 54.877-3.895 32.665 3.085 64.339 27.678 67.674 61.858 2.959 15.534.871 39.271-6.934 53.082-5.864 14.897-18.697 26.855-33.232 33.203q-2.349 1.02-4.72 1.986c-18.423 7.122-38.331 5.663-57.66 5.097-9.748-.285-22.708-2.747-28.354-11.321-2.536-3.85-4.585-9.275-4.819-13.928-.809-16.104-.12-32.405-.335-48.547.308-15.514-1.749-44.054.727-58.314.816-7.571 5.124-16.585 12.776-19.221m34.03 41.45.058 38.432c.014 4.791.361 15.627-.128 19.897l.471 9.337c6.628.259 11.725.339 18.336.06 6.179-2.216 8.634-3.208 13.655-7.474 16.233-18.032 13.685-54.392-11.961-62.696-4.759-1.541-9.159-1.474-14.104-1.589-3.051.218-3.881-.276-5.803 1.313z"/><path fill="#f19ee6" d="M547.543 321.319c10.927-6.115 42.164-5.096 54.877-3.895 32.665 3.085 64.339 27.678 67.674 61.858-1.343 5.053.218 18.202-.548 24.444-.505 4.107-1.299 5.925-1.904 9.366l-.119.71c-.631-3.94 2.392-19.471.473-21.379-.436 5.248-6.05 18.145-10.573 21.053l-.917-.281c-3.604-9.105-.966-23.283-2.903-33.152-.538-2.74-1.052-4.251-.76-7.076l-.15-.669c-1.958-1.912-10.5-20.192-13.537-22.793-10.069-8.004-23.806-12.935-35.988-16.76-5.224-1.64-11.177-1.804-15.94-4.33-10.408-.189-23.502 6.647-32.929-.907-1.162-1.328-2.719-5.414-4.344-5.758-1.077-.229.298.677-2.412-.431"/><path fill="#f2c6f2" d="M630.919 338.802c11.982 4.272 17.764 9.772 24.035 21.523 2.333 4.371 4.63 12.228 3.016 17.22l-1.025.882c-3.103-.726-3.086-2.566-4.102-5.46l-.15-.669c-4.09-16.774-12.629-21.737-21.774-33.496"/><path fill="#f2c6f2" d="M555.021 326.426c1.348-1.696 2.597-2.603 4.741-2.956 16.694-2.747 54.5-2.912 67.973 7.378l.756 1.437c-2.592 3.557-18.686-4.286-25.052-4.036-9.545-2.479-25.073-.466-34.954-.464-4.452.001-9.803 1.413-13.464-1.359"/><path fill="#c16bb0" d="M538.523 448.952c-.459-1.224-.495-.654-.02-1.765l1.966 2.081.771-.16 1.18-3.952c.527.579.588 2.655.705 3.641 4.848 2.16 9.288 8.772 12.705 9.486 14.701 3.069 36.838 2.226 51.868 2.658l-3.235.517c4.957.258 22.556-1.086 27.209-3.07 7.359-3.871 14.533-8.795 20.463-14.564 3.09-3.006 7.976-9.597 11.025-11.46-5.864 14.897-18.697 26.855-33.232 33.203q-2.349 1.02-4.72 1.986c-18.78-.863-38.736.311-57.949-1.884-16.119-1.841-19.196-5.111-28.736-16.717"/><path fill="#935089" d="M534.767 340.54c.97 5.898.303 10.69.235 16.606-.344 29.796.753 59.563 1.004 89.349.04 4.726 1.203 10.754 4.818 14.07l.824-.131c-1.393-3.709-3.182-7.569-3.125-11.482 9.54 11.606 12.617 14.876 28.736 16.717 19.213 2.195 39.169 1.021 57.949 1.884-18.423 7.122-38.331 5.663-57.66 5.097-9.748-.285-22.708-2.747-28.354-11.321-2.536-3.85-4.585-9.275-4.819-13.928-.809-16.104-.12-32.405-.335-48.547.308-15.514-1.749-44.054.727-58.314"/><path fill="#f19ee6" d="M567.887 374.244c-.951-4.028-1.073-6.78 3.053-8.885 7.172 2.932-3.211 54.253 9.471 59.436.669-1.474.75-2.099 1.092-3.697l.471 9.337c6.628.259 11.725.339 18.336.06-1.268 1.444-1.879 1.522-3.713 2.067.043 1.685.169 1.804.908 3.366 2.763-.61 7.665-1.528 8.57 1.685-.721.999-.959 1.701-2.258 2.095-36.861 11.186-39.871-.515-37.303-34.73.554-7.375-1.363-23.654 1.373-30.734"/><path fill="#f2c6f2" d="M577.327 439.674c-.432-2.051-.439-2.677-.433-4.782 1.625-.48 5.584 1.166 8.138 1.47 5.715.681 11.395.756 17.124.619l1.512.614c-4.345 5.992-20.343 2.415-26.341 2.079"/><path fill="#c16bb0" d="M581.573 362.769c-2.076-9.227 3.789-12.404 11.681-13.423 20.759-2.681 38.433 15.873 40.052 35.693.47 5.753.635 16.163-1.526 21.342l-.783.463c-2.551-14.797 3.025-20.646-7.086-35.884l-.601.371c6.096 16.703 9.657 23.387 3.572 41.875l-.678.328.344.62-.427.491c.138-1.948.478-3.433-.342-5.143-3.086 8.05-2.915 11.679-11.814 13.519 16.233-18.032 13.685-54.392-11.961-62.696-4.759-1.541-9.159-1.474-14.104-1.589-3.051.218-3.881-.276-5.803 1.313z"/><defs><linearGradient id="g" x1="595.4" x2="621.563" y1="405.6" y2="368.971" gradientUnits="userSpaceOnUse"><stop offset="0" stop-color="#cf6dc2"/><stop offset="1" stop-color="#a74d8f"/></linearGradient></defs><path fill="url(#g)" d="M587.9 358.736c3.025-1.398 3.557-1.366 6.919-1.387-.85-.694-1.451-.993-2.392-1.517 3.19-.966 7.996-.363 11.203.477 22.899 5.998 26.185 33.434 22.149 53.193-3.086 8.05-2.915 11.679-11.814 13.519 16.233-18.032 13.685-54.392-11.961-62.696-4.759-1.541-9.159-1.474-14.104-1.589"/><path fill="#f19ee6" d="m540.84 335.198.543.524c.496 1.574-1.575 13.053-1.95 15.693-3.026-2.651-.303-12.965 1.407-16.217"/><defs><linearGradient id="h" x1="912.545" x2="1013.288" y1="395.23" y2="393.634" gradientUnits="userSpaceOnUse"><stop offset="0" stop-color="#fa736d"/><stop offset="1" stop-color="#dca2a5"/></linearGradient></defs><path fill="url(#h)" d="M962.013 324.61c15.755-14.616 46.277-8.678 55.877 10.49 2.31 4.612 6.87 13.826 7.63 18.788 6.5 14.198 12.51 35.43 18.61 50.449 1.6 3.938 10.79 28.774 11.54 32.07 5.62 14.109 6.71 25.837-7.6 35.284-6.63 4.147-14.3 5.193-21.57 2.056-11.79-5.09-15.32-17.309-19.54-28.292-11.259-.851-31.626-.334-43.591-.41-3.024 10.427-4.866 17.621-12.793 25.407-16.457 13.019-42.155.561-37.879-23.066q.447-1.973 1.017-3.913c3.74-12.815 12.008-33.354 16.59-46.173 4.923-13.773 20.414-66.479 31.709-72.69m16.297 63.436c-1.509 5.569-3.917 12.265-5.12 17.502 6.163.026 18.714-.268 24.214.232a293 293 0 0 0-12.799-36.991c-2.065 5.116-4.342 13.535-6.295 19.257"/><path fill="#bebac6" d="M962.013 324.61c15.755-14.616 46.277-8.678 55.877 10.49 2.31 4.612 6.87 13.826 7.63 18.788 6.5 14.198 12.51 35.43 18.61 50.449 1.6 3.938 10.79 28.774 11.54 32.07 5.62 14.109 6.71 25.837-7.6 35.284-6.63 4.147-14.3 5.193-21.57 2.056-11.79-5.09-15.32-17.309-19.54-28.292-11.259-.851-31.626-.334-43.591-.41 3.04-7.997 26.114-7.07 33.824-9.648 3.697-3.112 6.607-.604 11.397-3.029-1.61-2.625-8.17-9.32-10.606-11.556-8.716-1.666-19.47-1.46-29.078-2.998.759-3.451.621-5.969 4.187-7.258l.617.7-2.402 1.55c1.336-.383 4.231-.599 5.729-.756 5.157-3.026 8.251-1.128 12.342-2.528 3.205-.282 5.749-.381 8.938.491 2.573.702 2.363 1.593 3.663 4.168l1.49.337c16.89-5.859 8.62-30.424 5.95-42.536-2.33-10.578-6.02-20.582-13.041-29.005-4.7-5.637-14.601-5.833-21.319-6.143-6.93-4.664-5.409-4.99-9.631-12.243-1.275-.474-2.069-.199-3.416.019"/><path fill="#efafb1" d="M962.013 324.61c15.755-14.616 46.277-8.678 55.877 10.49 2.31 4.612 6.87 13.826 7.63 18.788l-.81.585c-1.66-2.357-1.73-4.682-2.92-7.272-5.01-10.948-7.87-19.232-19.3-25.314-8.271-4.405-16.418-4.552-25.74-3.003-1.163.193-1.366 1.29-1.649 2.13l.751 1.508-.61-.803.468.797c3.787-1.626 15.55-.889 20.158-.623 2.378.829 4.061 1.166 5.632 3.116.3 1.878.04 2.722-1.892 3.637l.632 2.527c2.38.845 3.01.328 5.27.516-2.54.257-5.01.275-7.19 1.533l-.495.834c2.215 3.737 7.735 11.673 8.805 15.604 1.92 7.106 13.18 30.18 13.59 36.165-2.27-1.389-6.9-17.48-8.03-17.971-2.17 5.409 4.89 23.845 2.99 33.152-3.82 18.662-23.599 17.438 1.24 32.76-4.36-1.171-3.93.785-7.83-1.398-1.61-2.625-8.17-9.32-10.606-11.556-8.716-1.666-19.47-1.46-29.078-2.998.759-3.451.621-5.969 4.187-7.258l.617.7-2.402 1.55c1.336-.383 4.231-.599 5.729-.756 5.157-3.026 8.251-1.128 12.342-2.528 3.205-.282 5.749-.381 8.938.491 2.573.702 2.363 1.593 3.663 4.168l1.49.337c16.89-5.859 8.62-30.424 5.95-42.536-2.33-10.578-6.02-20.582-13.041-29.005-4.7-5.637-14.601-5.833-21.319-6.143-6.93-4.664-5.409-4.99-9.631-12.243-1.275-.474-2.069-.199-3.416.019"/><path fill="#fad1cf" d="M995.868 321.893c2.378.829 4.061 1.166 5.632 3.116.3 1.878.04 2.722-1.892 3.637-7.038-.503-21.786.414-27.431-1.414l-.837-.977c4.64-4.854 17.883-4.257 24.528-4.362"/><path fill="#fad1cf" d="M977.037 412.05c8.993-.422 16.436-1.551 25.273.998-5.704 1.643-26.984 4.377-31.002-.242 1.336-.383 4.231-.599 5.729-.756"/><path fill="#ede0ea" d="M1005.51 331.689c11.88 10.699 20.46 47.831 26.06 63.583 5.47 15.41 11.48 30.792 16.76 46.288.9 2.654 1.3 4.11.73 6.95l-1.02.802c-8.59-2.521-21.83-53.913-27.82-63.487-.41-5.985-11.67-29.059-13.59-36.165-1.07-3.931-6.59-11.867-8.805-15.604l.495-.834c2.18-1.258 4.65-1.276 7.19-1.533"/><path fill="#786d77" d="M997.193 435.397c9.727 4.042 16.017-5.045 21.287 12.987 3.17 10.82 17.14 25.245 29.59 23.307-6.63 4.147-14.3 5.193-21.57 2.056-11.79-5.09-15.32-17.309-19.54-28.292-11.259-.851-31.626-.334-43.591-.41 3.04-7.997 26.114-7.07 33.824-9.648"/><path fill="#97abbf" d="M1008.59 432.368c3.9 2.183 3.47.227 7.83 1.398 7.79 3.457 10.85 25.048 22.33 27.413 29.12 6.001 15.62-14.092 16.92-24.772 5.62 14.109 6.71 25.837-7.6 35.284-12.45 1.938-26.42-12.487-29.59-23.307-5.27-18.032-11.56-8.945-21.287-12.987 3.697-3.112 6.607-.604 11.397-3.029"/><path fill="#9e5557" d="M950.576 470.452c-16.457 13.019-42.155.561-37.879-23.066.275 1.931.885 8.401 1.919 9.471l.48-.441-.318-2.713.721-.209c8.937 7.091 16.438 15.067 28.463 16.388 2.442.268 4.068 1.029 6.614.57"/><path fill="#e28b8c" d="M968.906 417.814c-11.923-.117-11.333-13.831-7.207-21.351l.825-.23.599 2.607c4.294 2.669 3.88 4.734 5.692 9.758 2.509 1.727 16.479.956 20.564.924-4.091 1.4-7.185-.498-12.342 2.528-1.498.157-4.393.373-5.729.756l2.402-1.55-.617-.7c-3.566 1.289-3.428 3.807-4.187 7.258"/><path fill="#fad1cf" d="M963.248 402.192c1.689 1.256 3.671 5.922 4.687 8.032 1.654 3.433 1.108 3.363-.081 6.492-8.599-1.424-8.721-8.29-4.606-14.524"/><path fill="#bd6765" d="M978.31 388.046c-.052-5.592 3.885-29.094 9.816-31.019 2.517.178 3.325 1.202 4.946 3.07q1.098 1.275 2.155 2.585c.967-.114 1.185-.526 1.903-1.231.141 2.898-1.119 6.823-.344 8.254l1.291-1.191.871.056-.728-.151c1.97 2.104.77 2.359 2.15 5.024l-.01-.292c1.47 4.469 2.78 8.942 4.91 13.132l.74.312c.11-1.515.19-2.707.19-4.226 1.07.795 2.1 1.97 1.82 3.211-1.01 4.401 2.35 5.889 2.79 7.441 1.72 6.041-1.44 9.932-6.11 13.418l-.77-.031c-.78-1.967-.66-2.697-2.19-3.646-2.758 1.714-.34 2.694-3.181 3.52l-1.155-.502a293 293 0 0 0-12.799-36.991c-2.065 5.116-4.342 13.535-6.295 19.257"/><path fill="#e28b8c" d="M948.777 358.459c1.333 3.893-3.089 13.529-4.748 17.914-.278-.258-.545-.853-.751-1.229.879-4.649 3.796-12 5.499-16.685"/><path fill="#f47782" d="M708.937 362.076c29.117-13.767 65.607-4.162 79.72 25.946a75 75 0 0 1 2.193 5.087c4.947 17.862 4.464 36.009-4.281 52.947-.931 1.803-5.502 8.415-7.164 9.563-6.793 8.623-20.616 17.213-31.745 18.306-5.002 1.515-17.756.932-23.099.187a56.03 56.03 0 0 1-37.202-21.884c-8.414-11.158-12.826-26.806-10.835-40.681-.305-7.871 2.781-17.786 6.26-24.789 6.496-11.075 14.334-19.28 26.153-24.682m32.655 73.574c8.538-7.068 10.338-17.164 8.323-27.746-1.494-7.848-8.374-17.338-17.434-15.104-4.597 1.133-7.376 4.842-9.631 8.691-3.931 10.457-5.173 28.68 7.24 34.387 2.797 1.286 8.698.887 11.502-.228"/><path fill="#c35282" d="M682.784 386.758c3.841 8.143-4.962 24.684-.755 33.484l.615-.613c1.031 1.655 1.121 3.327 1.441 5.28l.939.089c.854-2.498.815-6.676.757-9.377 7.727 41.07 40.11 54.648 78.793 46.215 4.004-.872 4.615-3.938 7.527-4.695l.525.716c-2.454 2.196-4.706 4.234-6.76 6.828 3.525.484 8.532-7.911 13.539-9.066-6.793 8.623-20.616 17.213-31.745 18.306-5.002 1.515-17.756.932-23.099.187a56.03 56.03 0 0 1-37.202-21.884c-8.414-11.158-12.826-26.806-10.835-40.681-.305-7.871 2.781-17.786 6.26-24.789"/><path fill="#9e3f5d" d="M676.524 411.547c.318 6.837.096 8.205 2.397 14.692l-.39-2.443c11.103 33.014 34.227 48.854 69.129 50.129-5.002 1.515-17.756.932-23.099.187a56.03 56.03 0 0 1-37.202-21.884c-8.414-11.158-12.826-26.806-10.835-40.681"/><path fill="#e28b8c" d="M708.937 362.076c29.117-13.767 65.607-4.162 79.72 25.946a75 75 0 0 1 2.193 5.087c-3.344 3.932-2.647 5.396-2.364 11.097-2.647-10.505-3.021-11.373-7.668-21.501 1.913-6.556-7.903-12.818-12.641-16.019-17.484-11.813-38.671-12.265-57.712-4.075z"/><path fill="#dc595d" d="M722.85 401.491c-.793-10.894 12.535-21.992 23.578-17.67-.575.691-1.15 1.348-1.674 2.078 8.782 2.381 8.948 8.619 12.848 15.96 1.678 3.159 4.416 12.775.884 15.302l-.885-3.843-.707-.217c-.058 1.774-.072 10.37-.803 11.259l-.493-1.826-.09.556c-.787 4.645-5.959 13.754-11.05 14.622l-2.109-.58-.757-1.482c8.538-7.068 10.338-17.164 8.323-27.746-1.494-7.848-8.374-17.338-17.434-15.104-4.597 1.133-7.376 4.842-9.631 8.691"/><path fill="#e28b8c" d="M732.107 445.729c-7.057 1.854-5.995-2.321-12.163-1.137-12.193-5.475-15.957-19.987-13.931-32.348.219-1.338.664-4.38 1.704-5.111.178 1.883.328 3.577.652 5.452l1.481-2.755.912-.136c1.761 3.633 1.674 15.282 5.235 21.984 5.995 11.282 4.081 5.346 14.6 9.888 3.37.33 7.898.39 10.563 2.211l-.584-.332.601.55-.803-.548-1.665 1.501.198.07c-2.302.353-4.47.771-6.8.711"/><path fill="#efafb1" d="M730.597 441.566c3.37.33 7.898.39 10.563 2.211l-.584-.332.601.55-.803-.548-1.665 1.501.198.07c-2.302.353-4.47.771-6.8.711-2.115-.456-2.966-.461-4.648-1.836l.412-1.095z"/><path fill="#efafb1" d="M708.248 415.335c3.019 2.126 5.11 14.783 7.795 18.8 1.124 1.682 4.577 7.294 4.631 8.97-8.968-3.527-18.039-19.896-12.426-27.77"/><path fill="#efafb1" d="M730.368 360.498c5.59-2.353 31.95 2.579 32.327 9.475-3.566 1.796-9.26-.734-13.13-1.98-14.938-4.034-27.611 1.046-34.129-.865l-.163-.847c4.223-3.513 9.961-4.509 15.095-5.783"/><path fill="#efafb1" d="M761.313 373.412c.77-.575.684-.448 1.613-.79l-.888.953c.774.012 2.988-.506 3.465-.142 2.191 1.672 8.077 2.899 9.808 3.843 4.221 5.948 9.885 25.323 8.609 33.283-.551-2.491-.631-4.492-.803-7.026-.523-1.721-.754-3.573-1.041-5.358-1.126.549-1.703.712-2.944.897-.348.858.025 5.753.086 7.042-.705-6.285-3.319-10.125-5.758-15.468-2.284-5.005-12.112-13.208-12.147-17.234"/><path fill="#fad1cf" d="M766.694 377.356c5.492-.658 10.535 4.411 9.668 9.737-1.019.106-1.884-.098-2.897-.256-2.472-2.054-4.761-6.504-6.771-9.481"/><defs><linearGradient id="i" x1="808.13" x2="884.067" y1="409.834" y2="383.934" gradientUnits="userSpaceOnUse"><stop offset="0" stop-color="#f3736c"/><stop offset="1" stop-color="#f4bab6"/></linearGradient></defs><path fill="url(#i)" d="m805.462 358.196 3.294-1.484c1.779-8.578 1.662-22.302 9.498-27.319 8.816-5.644 26.764-6.208 33.162 3.588 4.048 6.411 3.007 16.528 4.108 24.029 8.305.965 17.847 1.378 23.57 8.396 3.632 4.452 3.845 11.874 2.12 17.125-4.394 12.01-15.507 11.497-26.372 11.434.006 8.219.363 19.308-.001 27.283.023 2.705-.179 10.968 1.442 11.731 9.707 4.565 26.207.99 28.222 17.34.569 4.615-1.583 10.262-4.273 14.754-8.051 9.399-19.663 10.122-31.266 9.957-22.662-1-33.632-10.431-38.609-32.243-1.847-9.182-1.341-37.586-1.374-48.634-10.503-2.443-14.122-4.25-16.692-14.851-.136-2.494.014-5.371.085-7.9 2.525-8.291 5.016-10.505 13.086-13.206"/><path fill="#bd6765" d="M792.291 379.302c1.8.572 3.804 1.368 5.34 2.442 4.247 2.967 14.054 3.927 15.238 9.529.887 4.192.483 8.493.351 12.608-.496 15.414-1.823 30.817 6.777 44.473 2.83 4.494 6.074 9.5 11.163 12.375 9.604 5.425 27.217 8.431 38.174 6.439 1.446-.263 4-1.213 5.117-2.156l5.781.061c-8.051 9.399-19.663 10.122-31.266 9.957-22.662-1-33.632-10.431-38.609-32.243-1.847-9.182-1.341-37.586-1.374-48.634-10.503-2.443-14.122-4.25-16.692-14.851"/><path fill="#9e5557" d="M810.357 442.787c1.019 1.312 5.951 7.062 6.288 7.924 6.266 16.011 22.745 14.539 32.321 24.319-22.662-1-33.632-10.431-38.609-32.243"/><path fill="#dc595d" d="M792.291 379.302c-.136-2.494.014-5.371.085-7.9.673 3.295.065 3.11 2.151 4.776l.443.311c5.57 3.856 14.403 5.592 19.954 9.26.491.325 1.313 3.045 1.507 3.971 5.115 24.424-7.727 48.155 14.615 67.083 5.318 4.505 24.282 7.691 31.255 8.546 2.941.36 7.243-1.851 12.15-.337-1.117.943-3.671 1.893-5.117 2.156-10.957 1.992-28.57-1.014-38.174-6.439-5.089-2.875-8.333-7.881-11.163-12.375-8.6-13.656-7.273-29.059-6.777-44.473.132-4.115.536-8.416-.351-12.608-1.184-5.602-10.991-6.562-15.238-9.529-1.536-1.074-3.54-1.87-5.34-2.442"/><path fill="#bd6765" d="M854.841 421.248c-1.933-2.666.64-24.663-1.104-29.893-.204-.613.907-1.238.676-3.298 5.206-.894 11.273-.431 15.46-3.327-1.67 1.155 5.53-.377 5.295-.317-.731 1.034-1.05 1.34-1.337 2.602l1.277.616c2.105-.575 3.621-3.07 6.106-5.1-4.394 12.01-15.507 11.497-26.372 11.434.006 8.219.363 19.308-.001 27.283"/><path fill="#e28b8c" d="M792.376 371.402c2.525-8.291 5.016-10.505 13.086-13.206-1.466 2.284-3.506 3.161-5.809 4.467l.232.476c.861 1.813 1.031 2.131 1.129 4.11.978.87 2.049 1.65 2.581 2.818l-.761.49c-1.361-.87-1.898-1.202-3.089-2.278-3.434 4.319-.415 5.406-5.218 7.899-2.086-1.666-1.478-1.481-2.151-4.776"/><path fill="#fad1cf" d="m840.249 335.73 3.327.266c5.864 4.045 1.889 16.01 4.267 22.003 1.784 4.498 9.499 8.67 10.316 11.75-14.049 3.738-17.48-8.474-19.037-20.155-.395-2.958-.218-11.44 1.127-13.864"/><path fill="#efafb1" d="M846.2 443.537c-4.098-7.255-4.906-12.112-4.658-20.346.572 4.088 1.549 11.519 3.243 15.057 1.084-1.474 1.156-2.141 1.69-3.932-.528-1.943-2.153-9.408-1.554-11.018.372 3.886 2.359 9.196 3.901 12.768 2.123.346 7.828.633 8.612 1.607l-.214 2.385c4.239-.143 12.348-1.014 15.805 1.08l.657 1.255c-.533 1.17-.679 2.012-2.173 2.23-8.081 1.184-19.437 6.624-25.309-1.086"/><path fill="#fad1cf" d="M846.2 443.537c-4.098-7.255-4.906-12.112-4.658-20.346.572 4.088 1.549 11.519 3.243 15.057 1.084-1.474 1.156-2.141 1.69-3.932-.528-1.943-2.153-9.408-1.554-11.018.372 3.886 2.359 9.196 3.901 12.768 3.355 4.009 5.89 6.503 8.759 10.968-3.13-.986-8.357-2.797-11.381-3.497"/><path fill="#fad1cf" d="M858.432 441.447c3.875-.293 10.054-1.228 13.233.889l.138 1.272c-3.811.993-11.614 2.353-13.371-2.161"/><path fill="#fad1cf" d="M835.154 329.754c2.831-.764 4.408-.369 5.713 2.046l-.522 1.599c-1.667 1.352-2.625 1.25-4.775 1.504-3.543.165-6.554 1.132-8.352-2.233l.884-1.379c2.316-1.647 4.193-1.438 7.052-1.537"/><path fill="#fad1cf" d="M856.222 362.591c4.666-.305 11.82-1.732 14.477 2.934-5.074 1.57-11.419 2.178-14.477-2.934"/><path fill="#fad1cf" d="M869.056 446.069c3.336-.068 3.782-.247 6.062 1.479.955 2.025.616 3.724.431 5.937-2.259.011-4.156-.414-5.79-1.99-1.233-2.186-.977-3.001-.703-5.426"/><path fill="#fad1cf" d="M869.536 367.763c2.97.164 3.439.711 4.831 3.069-.178 2.726.161 1.654-1.606 4.076-2.298-.333-4.284-1.03-5.54-3.056.146-2.603.059-1.795 2.315-4.089"/><path fill="#75afbe" d="M1068.55 384.757c3.82-14.431 13.97-17.978 27.74-16.348 7.15 3.11 12.08 6.305 14.36 14.182 3.41 7.304 3.39 72.44-.58 80.134-2.18 4.457-3.72 6.054-7.61 9.169a23.64 23.64 0 0 1-15.4 3.827 21.7 21.7 0 0 1-14.94-8.228 23.3 23.3 0 0 1-4.4-10.054c-1.38-8.032-1.1-57.102-.05-65.659-.08-2.631.38-4.454.88-7.023"/><path fill="#76d8e6" d="M1096.29 368.409c7.15 3.11 12.08 6.305 14.36 14.182 3.41 7.304 3.39 72.44-.58 80.134-.44-.818-.9-1.254-1.51-1.933-5.1 1.08-12.15.63-16.17-3.084-8.65-7.996-.09-28.242.81-38.568.81-9.208 1.63-14.602.92-23.659-6.1-7.265-7.49-6.661-13.9-16.29l2.27-1.122 3.31 1.373c-1.9-2.419-1.65-1.416-1.62-3.92 1.72-3.821 7.17-4.216 11.51-6.757z"/><path fill="#b1e1ed" d="M1096.29 368.409c7.15 3.11 12.08 6.305 14.36 14.182l-1.15.221-1.14-2.093c-1.95-.205-1.25-.228-3.27 1.072-4.39 7.514-1.76 29.874-3.65 40.467-1.09-9.494.81-21.231-.23-30.608.01-.303.01-.606.02-.909 1.26-2.884 1.21-8.506-1.54-10.405-1.85-1.275-3.26-.659-5.29-.429-2.54-1.532-3.7-.508-6 .561-.86-.351-1.73-.694-2.6-1.026-1.9-2.419-1.65-1.416-1.62-3.92 1.72-3.821 7.17-4.216 11.51-6.757z"/><path fill="#d0e5f1" d="M1089.77 372.942c2.59.217 5.87-.02 6.47 2.953-1.34 1.316-1.81 1.269-3.72 1.731-2.63-.024-5.77.454-7.42-1.771 1.08-1.825 2.61-2.11 4.67-2.913"/><path fill="#cbeff7" d="M1094.4 379.907c2.03-.23 3.44-.846 5.29.429 2.75 1.899 2.8 7.521 1.54 10.405-.76-.142-1.67-.22-2.45-.311-2.09 3.157 1.74 18.618.43 25.988-1.63-5.803-.32-17.209-1.75-23.481-.74-3.23-4.27-6.805-5.45-10.594.77-1.957.22-1.277 2.39-2.436"/><path fill="#466c7c" d="M1067.67 391.78c.99 13.321-3.34 67.931 6 75.198.96.749 2.48 1.114 3.64 1.464.18-2.492-9.97-9.811-7.33-17.223 1.32 2.294 8.91 9.91 10.98 12.285 3.14 3.589 16.45 9.189 21.5 8.39a23.64 23.64 0 0 1-15.4 3.827 21.7 21.7 0 0 1-14.94-8.228 23.3 23.3 0 0 1-4.4-10.054c-1.38-8.032-1.1-57.102-.05-65.659"/><path fill="#bebac6" d="M1068.55 384.757c3.82-14.431 13.97-17.978 27.74-16.348l-.6.356c-4.34 2.541-9.79 2.936-11.51 6.757-.03 2.504-.28 1.501 1.62 3.92l-3.31-1.373-2.27 1.122c-2.73-3.248 1.08-5.1.42-7.774-7.8 2.129-8.46 9.384-11.45 14.503z"/><defs><linearGradient id="j" x1="1096.696" x2="1109.57" y1="337.548" y2="335.49" gradientUnits="userSpaceOnUse"><stop offset="0" stop-color="#b3a5b6"/><stop offset="1" stop-color="#99c8d8"/></linearGradient></defs><path fill="url(#j)" d="M1103.7 297.551c4.12 2.464 5.1 3.235 8.66 6.416 1.58 1.857 3.29 3.662 4.4 5.816 5.3 7.444 7.03 20.73 2.36 28.748-.81 1.742-1.62 3.589-2.48 5.294-3.46-.98-4.88-.621-8.5-.169-2.58.738-5.51 3.646-7.47 5.581-4.06-6.059-2.09-6.997-5.55-12.238-.53-.803-1.78-.534-2.95-.538 2.84-6.333 5.62-7.304 11.82-9.784l.14-.937c-1.91-3.566-9.07-.906-12.22-12.63-.66-1.969-1.58-2.626-3.06-4.023.1-1.985.43-2.012 1.82-3.053 2.45-.294 3.44.289 5.68 1.182 2.17 1.464 3.79 2.642 6.17 3.743-.33-2.434-.38-2.825-1.61-5.06 1.54-1.464 1.66-1.985 2.47-3.976l1.1-.04.82-.568z"/><path fill="#76d8e6" d="M1103.7 297.551c4.12 2.464 5.1 3.235 8.66 6.416 1.58 1.857 3.29 3.662 4.4 5.816 5.3 7.444 7.03 20.73 2.36 28.748-.81 1.742-1.62 3.589-2.48 5.294-3.46-.98-4.88-.621-8.5-.169-3.28-3.126 2.24-7.928 3.02-13.366l1.81-.78c3.88-10.887-4.9-11.08-9.74-17.977l-.71-.574c-.33-2.434-.38-2.825-1.61-5.06 1.54-1.464 1.66-1.985 2.47-3.976l1.1-.04.82-.568z"/><path fill="#d0e5f1" d="M1103.7 297.551c4.12 2.464 5.1 3.235 8.66 6.416 1.58 1.857 3.29 3.662 4.4 5.816l-2.29 1.268c-1.67.133-1.07-.231-2.01.871l-2.08-2.418c-2.04-.569-5.32-2.988-6.3-4.861-.55-1.048 0-1.602.4-2.76l.82-.568z"/><path fill="#b1e1ed" d="M1112.36 303.967c1.58 1.857 3.29 3.662 4.4 5.816l-2.29 1.268c-1.67.133-1.07-.231-2.01.871l-2.08-2.418c-.45-2.367.65-3.507 1.98-5.537"/><path fill="#75afbe" d="M1111.16 330.29c1.98 3.135 4.54 4.326 5.05 6.204-.98 2.194-2.32 3.825-2.04 5.698l1.02.035.23-.27c.93-1.108 2.43-2.741 3.7-3.426-.81 1.742-1.62 3.589-2.48 5.294-3.46-.98-4.88-.621-8.5-.169-3.28-3.126 2.24-7.928 3.02-13.366"/><path fill="#cbeff7" d="m1103.38 301.923 1.1-.04c-.4 1.158-.95 1.712-.4 2.76.98 1.873 4.26 4.292 6.3 4.861l2.08 2.418c.88 1.662 2.42 4.408 1.98 6.2-3.34-.448-4.77-4.739-10.56-6.407l-.65-.182-.71-.574c-.33-2.434-.38-2.825-1.61-5.06 1.54-1.464 1.66-1.985 2.47-3.976"/><path fill="#b1e1ed" d="M1112.46 311.922c.94-1.102.34-.738 2.01-.871l-.42 1.013c1.04 2.227 2.03 4.358 3.18 6.533-.63 3.655-.81 10.926-3.11 12.846-1.17-.974-.76-.371-1.15-1.933 3.88-10.887-4.9-11.08-9.74-17.977l.65.182c5.79 1.668 7.22 5.959 10.56 6.407.44-1.792-1.1-4.538-1.98-6.2"/><path fill="#786d77" d="M1091.91 313.11c4.55 1.38 13.39 6.218 16.26 10.167l.28 1.697c-1.34 1.573-1.99 1.222-4.46 1.703l.14-.937c-1.91-3.566-9.07-.906-12.22-12.63"/><path fill="#cf91a8" d="M1101.41 356.427c-23.71 7.552-49.81-10.317-43.61-35.143l.3 1.146c.94 1.715 1.67 2.867 2.19 4.769l.41.304.39-1.98c2.56.377 2.91 2.545 5.1 4.592l.87-.755-.53-1.048c.03-1.42.13-1.459.67-2.721l1.42-.441c2.19.8 3.3 1.346 5.71 1.012 8.39 3.249 10.64 5.379 14.28 13.675.25.559.49 1.12.73 1.681 1.02-1.351 2.03-3.506 2.83-5.057 1.17.004 2.42-.265 2.95.538 3.46 5.241 1.49 6.179 5.55 12.238l-2.42 3.517z"/><path fill="#9e5557" d="M1101.41 356.427c-23.71 7.552-49.81-10.317-43.61-35.143l.3 1.146c-.09 2.538-.45 5.759.52 8.008 7.61 6.499 18.04 18.244 27.07 22.073 1.54.652 10.48.34 12.56.243z"/><path fill="#efafb1" d="M1066.53 328.312c.03-1.42.13-1.459.67-2.721l1.42-.441c2.19.8 3.3 1.346 5.71 1.012 8.39 3.249 10.64 5.379 14.28 13.675.25.559.49 1.12.73 1.681.58 3.1 1.61 4.854-1.07 6.776-6.85.089-13.44-11.87-18.56-15.348-1.03-.704-2.5-1.994-3.52-2.831l.87-.755z"/><path fill="#fad1cf" d="M1066.53 328.312c5.95-.978 18.42 9.335 19.88 15.805l-.33 1.564-.82.346c-5.14-4.293-4.29-12.502-18.2-16.667z"/><path fill="#e486c9" d="M1074.87 297.507c10.5-3.987 18.16-4.641 28.83.044l1.6 3.764-.82.568-1.1.04c-.81 1.991-.93 2.512-2.47 3.976 1.23 2.235 1.28 2.626 1.61 5.06-2.38-1.101-4-2.279-6.17-3.743-2.24-.893-3.23-1.476-5.68-1.182-1.39 1.041-1.72 1.068-1.82 3.053-3.46 10.475-3.62 11.595-13.79 16.709l-.73.366c-2.41.334-3.52-.212-5.71-1.012l-1.42.441c-.54 1.262-.64 1.301-.67 2.721l.53 1.048-.87.755c-2.19-2.047-2.54-4.215-5.1-4.592l-.39 1.98-.41-.304c-.52-1.902-1.25-3.054-2.19-4.769l-.3-1.146c1.04-11.06 7.95-18.376 17.07-23.777"/><path fill="#f2c6f2" d="M1074.87 297.507c10.5-3.987 18.16-4.641 28.83.044l1.6 3.764-.82.568-1.1.04c-.81 1.991-.93 2.512-2.47 3.976 1.23 2.235 1.28 2.626 1.61 5.06-2.38-1.101-4-2.279-6.17-3.743-6.07-9.737-12.89-1.823-18.85-4.268-2.22-2.169-1.65-2.056-2.63-5.441"/><path fill="#ede0ea" d="M1100.91 305.899c-2.69-.025-8.08-5.916-10.41-6.393-3.03-.617-6.42 3.013-10.3 1.833l.41-.738c7.23-3.86 16.2-3.814 22.77 1.322-.81 1.991-.93 2.512-2.47 3.976"/><path fill="#97abbf" d="M1108.14 343.656c3.62-.452 5.04-.811 8.5.169-4.97 6.516-7.68 8.97-15.23 12.602l-3.16-3.673 2.42-3.517c1.96-1.935 4.89-4.843 7.47-5.581"/></svg>