<svg xmlns="http://www.w3.org/2000/svg" width="1344" height="768" viewBox="0 0 1344 768"><defs><linearGradient id="a" x1="652.901" x2="831.036" y1="361.698" y2="489.245" gradientUnits="userSpaceOnUse"><stop offset="0" stop-color="#95734c"/><stop offset="1" stop-color="#ac936d"/></linearGradient></defs><path fill="url(#a)" d="M595.57 147.218c6.792-2.843 18.317-5.795 25.534-7.389a236.8 236.8 0 0 1 137.879 11.398 240.13 240.13 0 0 1 131.421 129.759 244.5 244.5 0 0 1 18.625 94.176c.009 2.63-.059 13.519-.804 15.634-.077 37.437-17.778 83.11-37.909 114.079-4.127 6.349-14.479 21.199-20.027 26.201-3.951 4.769-15.864 18.024-20.656 20.946-5.325 5.967-16.26 13.971-23.129 18.82-10.817 7.794-25.052 15.742-37.129 21.214a237.53 237.53 0 0 1-182.389 5.378c-57.184-21.648-106.399-68.605-131.472-124.329a239.56 239.56 0 0 1-5.305-184.217c19.475-52.211 59.675-99.204 108.887-125.493 9.675-5.486 26.245-13.47 36.474-16.177M482.427 347.702c-4.558 38.949-1.116 67.877 14.724 104.359 3.283 7.561 10.71 19.886 13.07 25.638l.53.695c3.014 2.915 12.604 16.919 16.92 21.645 20.896 22.876 47.319 41.055 76.164 52.123a187.97 187.97 0 0 0 143.907-3.99c41.987-18.784 77.306-53.619 93.399-96.99 21.616-58.259 2.83-120.642-21.431-174.651-1.206-1.534-4.335-8.083-5.591-10.197-28.951-48.698-87.161-81.131-143.105-82.499a186.7 186.7 0 0 0-117.33 39.202c-10.753 8.379-16.488 14.861-25.981 23.876-4.197 5.827-10.092 12.325-13.843 18.091-17.268 26.541-26.736 51.661-31.433 82.698"/><path fill="#1d1d1f" d="M590.769 224.191c34.669-20.89 85.058-21.889 123.727-13.321 19.793 4.386 58.029 22.718 70.503 39.187 29.82 29.131 49.06 81.638 49.475 122.689a129 129 0 0 1-1.216 18.659c-.06 7.087-2.099 16.595-3.757 23.45a182.86 182.86 0 0 1-49.034 87.916 163.2 163.2 0 0 1-72.994 41.495q-1.346.317-2.696.611c-47.449 10.342-88.721.885-129.825-24.999-31.687-19.954-62.374-56.82-70.355-94.114-4.754-12.851-5.193-40.321-4.075-53.79 4.378-52.729 43.25-121.783 90.247-147.783"/><path fill="#3f383e" d="M559.542 271.328c2.798-3.921 9.278-9.614 12.977-12.747 20.121-17.038 46.918-29.895 73.041-34.238a151.17 151.17 0 0 1 114.026 26.755c81.653 58.765 79.999 181.485 1.875 242.806-31.125 24.431-69.777 35.918-109.29 31.647-4.383 2.104-29.951-3.813-31.893-3.176 2.056.703 6.095 1.874 7.753 2.999-5.756-1.212-16.101-4.863-21.167-7.745 2.508.616 4.22 1.545 7.461 2.222l.437-.394c-54.954-27.632-77.441-52.028-92.88-112.605l3.279 4.701c-3.346-9.332-2.741-12.68-3.906-22.424-4.883-40.809 9.308-87.552 38.287-117.801"/><defs><linearGradient id="b" x1="604.845" x2="556.729" y1="435.164" y2="464.33" gradientUnits="userSpaceOnUse"><stop offset="0" stop-color="#614975"/><stop offset="1" stop-color="#4a8f95"/></linearGradient></defs><path fill="url(#b)" d="M530.715 410.762q-.57-2.983-1.104-5.971c-3.087-17.301-4.101-33.935-1.486-51.411.352-2.357.719-6.07 1.987-7.889.463 4.133-1.936 13.414-2.309 17.943-.365 4.425.101 13.174.828 17.451 1.442-4.469-.763-12.971.853-17.234-1.655 31.458 5.92 61.429 23.781 87.262 2.332 3.373 7.006 11.126 9.626 13.821 19.26 19.805 28.487 31.897 55.977 37.059 7.846 4.271 8.533 5.435 18.104 5.84 6.934.294 14.847 1.668 21.881 2.427-.977 1.115-2.873 1.366-4.537 1.878 3.439 2.568 32.946-1.058 35.805 1.218-5.092 2.874-39.514.445-40.423 1.208 4.202.002 4.079 1.383 5.843 1.5 13.222.876 26.338.922 39.429-1.427 2.447-.44 8.694-2.942 10.272-2.691l-1.028 1.709c-28.086 5.755-45.687 5.334-73.571-.959l-.555.381c-11.363-1.076-38.729-15.828-48.202-23.191l-.358-.283c-.207 6.315 25.035 15.959 30.752 20.051l-.725.158c-23.955-9.537-40.055-21.226-56.461-41.194-1.671-3.432-7.026-10.791-9.407-14.612-2.905-4.659-6.972-13.776-9.668-17.243-2.882-8.709-5.732-16.457-5.304-25.801"/><path fill="#3e6877" d="M530.715 410.762c14.356 47.184 41.497 80.1 88.898 97.578 2.647.976 8.792 2.893 11.03 4.156l-.555.381c-11.363-1.076-38.729-15.828-48.202-23.191l-.358-.283c-.207 6.315 25.035 15.959 30.752 20.051l-.725.158c-23.955-9.537-40.055-21.226-56.461-41.194-1.671-3.432-7.026-10.791-9.407-14.612-2.905-4.659-6.972-13.776-9.668-17.243-2.882-8.709-5.732-16.457-5.304-25.801"/><path fill="#303f45" d="m559.542 271.328.289 1.024c-3.876 4.757-7.884 9.501-11.571 14.394-1.567 2.34-2.368 4.955-3.927 7.325-16.212 24.65-24.406 56.658-22.365 86.068.332 4.791.765 20.626 2.509 24.371.119-7.587-2.575-15.009-.418-21.611l.648.197c.174 6.923.329 13.846 2.812 20.383l.417-.093c-.016-7.807-2.494-19.346-2.458-30.043a144.55 144.55 0 0 1 25.715-81.644c.772-1.091 1.508-3.391 2.339-4.652 1.774-2.692 4.562-5.644 6.836-7.924a95 95 0 0 1 3.137-3.001c-1.292 1.424-2.28 2.723-3.446 4.242-15.551 20.262-23.378 40.399-29.947 65.127-1.268 1.819-1.635 5.532-1.987 7.889-2.615 17.476-1.601 34.11 1.486 51.411q.534 2.988 1.104 5.971c-.428 9.344 2.422 17.092 5.304 25.801 2.696 3.467 6.763 12.584 9.668 17.243 2.381 3.821 7.736 11.18 9.407 14.612 16.406 19.968 32.506 31.657 56.461 41.194l.725-.158c22.297 8.548 41.327 15.017 65.598 13.081 2.703-.216 11.022-1.167 13.079-.501-4.458 2.959-43.49.501-49.819-1.232-19.756-5.412-40.692-10.918-56.958-23.862-3.608-2.871-7.711-4.407-11.644-7.807 4.224 9.743 35.171 23.522 44.958 27.923 9.659 4.344 25.029 5.207 34.677 8.495-4.383 2.104-29.951-3.813-31.893-3.176 2.056.703 6.095 1.874 7.753 2.999-5.756-1.212-16.101-4.863-21.167-7.745 2.508.616 4.22 1.545 7.461 2.222l.437-.394c-54.954-27.632-77.441-52.028-92.88-112.605l3.279 4.701c-3.346-9.332-2.741-12.68-3.906-22.424-4.883-40.809 9.308-87.552 38.287-117.801"/><path fill="#234456" d="M555.094 468.418c-11.064-6.356-17.68-23.628-22.254-34.55l-.24-.563c1.746.658 2.081 1.625 3.419 3.258 2.696 3.467 6.763 12.584 9.668 17.243 2.381 3.821 7.736 11.18 9.407 14.612"/><path fill="#3e6877" d="M529.484 363.651c-.043-7.569 2.31-19.19 4.123-26.473-2.595 25.333-3.634 45.358 4.79 70.229 1.143 3.376 3.016 10.114 4.703 12.73.996 3.019 3.188 6.464 4.267 9.411 7.889 21.539 24.383 36.058 40.378 51.551 1.83 1.773 5.015 3.089 7.073 4.619 3.215 2.551 6.42 5.312 9.57 7.933 3.119-.156 4.843-.993 7.295-.007l-.142-.148.345.993c-1.496.8-4.332.629-6.173.674l-.085.504c3.16 1.443 11.426 4.532 13.24 6.126-27.49-5.162-36.717-17.254-55.977-37.059-2.62-2.695-7.294-10.448-9.626-13.821-17.861-25.833-25.436-55.804-23.781-87.262"/><path fill="#383b60" d="M533.607 337.178c1.081-15.94 25.049-56.317 37.419-66.455-1.671 3.641-6.192 8.79-8.46 12.488-2.559 4.17-5.446 10.59-8.632 14.182-4.064 4.583-4.62 19.306-7.919 22.397l-.485-1.857c-1.76.489-1.773.524-2.734 2.173-.958 1.644-.984 2.154-.532 3.963.112.452.249.898.388 1.344 1.677 5.39-3.628 22.204-4.495 28.798-.553 4.207-.523 8.432-.446 12.667l-.474.613c-2.644-3.605 1.04-7.64-.575-10.091l-1.418 1.04c-.397 8.008-1.714 8.441.806 15.973 2.013 6.017.265 17.759 1.94 24.497.916 4.802 5.344 16.749 5.11 21.227-1.687-2.616-3.56-9.354-4.703-12.73-8.424-24.871-7.385-44.896-4.79-70.229"/><path fill="#303f45" d="M544.251 356.375c.982-1.697 3.766-21.05 5.691-26.31 9.235-25.241 25.969-46.458 47.706-62.181 6.742-4.876 14.656-8.632 21.968-12.652 1.647 5.326 4.929 15.254 5.716 20.39 6.329-.421 21.614-2.196 26.757-1.061 14.792-3.373 38.841-.987 53.247 3.51 5.747 1.945 15.417 5.917 19.117 10.711l1.332-.235 4.426-1.485c7.621-2.257 16.196-3.971 24.031-5.545l6.352-.776c20.87 18.361 36.42 54.129 37.843 81.747.051.994-.156 1.78-.52 2.698-1.64 1.475-1.977 1.108-4.436 1.465 2.267 1.041 1.35.967 3.541.564.052 7.612.062 21.822-1.23 29.152-7.494 42.511-39.719 82.959-80.761 97.356-5.245 1.84-10.331 2.831-15.532 4.383-3.565 1.1-11.402.954-12.806 2.61 4.168.264 4.659-.928 7.751.408.326.194.476.48.738.816-60.89 13.37-126.661-25.213-146.36-83.641-3.572-10.595-8.914-30.125-6.99-41.216.138-8.097-.155-12.492 1.357-20.602z"/><path fill="#434953" d="M544.251 356.375c.982-1.697 3.766-21.05 5.691-26.31 9.235-25.241 25.969-46.458 47.706-62.181 6.742-4.876 14.656-8.632 21.968-12.652 1.647 5.326 4.929 15.254 5.716 20.39 6.329-.421 21.614-2.196 26.757-1.061-29.354 7.19-49.187 19.128-65.535 45.33-31.18 49.974-15.087 109.968 34.454 140.48 46.906 28.89 107.402 11.751 135.136-35.058a103.1 103.1 0 0 0 14.042-56.419c5.556.123 12.782-.333 18.262-1.236 1.909-.096 3.203-.524 5.033-1.007 2.267 1.041 1.35.967 3.541.564.052 7.612.062 21.822-1.23 29.152-7.494 42.511-39.719 82.959-80.761 97.356-5.245 1.84-10.331 2.831-15.532 4.383-3.565 1.1-11.402.954-12.806 2.61 4.168.264 4.659-.928 7.751.408.326.194.476.48.738.816-60.89 13.37-126.661-25.213-146.36-83.641-3.572-10.595-8.914-30.125-6.99-41.216.138-8.097-.155-12.492 1.357-20.602z"/><path fill="#2c2c2c" d="M541.832 377.083c.138-8.097-.155-12.492 1.357-20.602l1.062-.106c-.506 5.986-.017 22.213-1.018 25.554l-.624.325.017 1.229-.317-.026c-.408-2.641-.488-3.702-.477-6.374"/><path fill="#1d1d1f" d="M686.693 500.716c4.168.264 4.659-.928 7.751.408-2.432.401-9.112 1.788-11.099 1.279z"/><path fill="#ac9263" d="M659.168 329.841c1.63-4.201 6.939-21.411 8.423-23.369l1.437.359c.972 6.102 3.353 10.871 4.61 16.194 5.043 21.346 18.779 39.877 41.931 42.822 1.114.141 4.578 4.071 6.077 4.412 8.912 4.016 16.119 2.471 24.148 3.05 3.745-.841 5.802-.589 9.572-.377-2.399 1.115-4.043 1.733-6.547 2.601-5.717 1.822-11.748 3.359-17.56 4.921-11.012 4.034-27.216 9.889-34.96 18.787-13.61 15.638-18.058 40.943-23.239 60.228-2.753-3.525-1.632-18.251-2.615-22.991-.871-4.195-3.779-8.822-5.364-12.907-1.53-3.944-2.754-10.229-3.419-14.503-.968-7.264-20.068-28.046-28.619-27.862-7.387-2.64-14.137-4.487-21.676-6.572l2.843.55c-3.236-1.583-22.686-2.903-27.13-3.044l-1.156-1.238 2.688-.426c17.349-4.386 28.417-7.153 45-14.362.795-.668 4.203-2.446 5.43-3.274 5.324-3.59 7.792-6.161 11.691-11 3.702-1.307 6.394-8.164 8.435-11.999"/><defs><linearGradient id="c" x1="728.779" x2="732.561" y1="374.678" y2="381.917" gradientUnits="userSpaceOnUse"><stop offset="0" stop-color="#947b54"/><stop offset="1" stop-color="#b59968"/></linearGradient></defs><path fill="url(#c)" d="M745.794 373.309c3.745-.841 5.802-.589 9.572-.377-2.399 1.115-4.043 1.733-6.547 2.601-5.717 1.822-11.748 3.359-17.56 4.921-3.946-2.359-10.694 3.22-16.403 3.182 4.623-7.772 22.272-6.942 30.282-10.066z"/><path fill="#e6dcbe" d="M633.612 356.114c-3.263 6.884-39.052 18.128-45 14.362 17.349-4.386 28.417-7.153 45-14.362"/><path fill="#9e855b" d="M659.168 329.841c1.63-4.201 6.939-21.411 8.423-23.369l1.437.359c-.714 5.23-1.641 15.2-5.212 18.908l.68-2.035c-.994 1.28-4.168 5.725-5.328 6.137"/><path fill="#a9949f" d="M760.594 280.741c20.87 18.361 36.42 54.129 37.843 81.747.051.994-.156 1.78-.52 2.698-1.64 1.475-1.977 1.108-4.436 1.465-1.83.483-3.124.911-5.033 1.007-5.557-.357-10.953-.354-16.518-.39-6.769-26.705-10.805-46.351-31.255-66.734-3.951-3.938-11.917-8.237-14.89-11.987l4.426-1.485c7.621-2.257 16.196-3.971 24.031-5.545z"/><path fill="#92b2c0" d="m724.453 288.782 1.332-.235c2.973 3.75 10.939 8.049 14.89 11.987 20.45 20.383 24.486 40.029 31.255 66.734 5.565.036 10.961.033 16.518.39-5.48.903-12.706 1.359-18.262 1.236l-12.285-.889c-.627-.326-1.995-.364-3.065-.831-6.23-2.725-12.478-4.949-18.989-6.911l-.034-.404c.294-22.03-12.807-47.438-22.948-66.133 3.897-1.984 7.307-4.059 11.588-4.944"/><path fill="#e6dcbe" d="m670.531 278.604 1.837-1.144c1.535.889 2.6 2.929 3.218 4.576 5.478 14.578 9.136 35.142 16.327 48.833 7.077 15.275 17.723 20.4 32.821 25.924q2.786 1.015 5.606 1.93l5.473 1.136.034.404c6.511 1.962 12.759 4.186 18.989 6.911 1.07.467 2.438.505 3.065.831l.117.358c.537 1.589.724 1.89 1.662 3.268-.239 3.322-3.115 3.853-6.063 5.419-1.603-.557-3.177-1.026-4.798-1.517 2.504-.868 4.148-1.486 6.547-2.601-3.77-.212-5.827-.464-9.572.377-8.029-.579-15.236.966-24.148-3.05-1.499-.341-4.963-4.271-6.077-4.412-23.152-2.945-36.888-21.476-41.931-42.822-1.257-5.323-3.638-10.092-4.61-16.194l-1.437-.359c-1.484 1.958-6.793 19.168-8.423 23.369-2.041 3.835-4.733 10.692-8.435 11.999 8.325-14.147 16.91-44.308 20.567-61.343z"/><path fill="#624f34" d="m670.531 278.604 1.837-1.144c1.535.889 2.6 2.929 3.218 4.576 5.478 14.578 9.136 35.142 16.327 48.833 7.077 15.275 17.723 20.4 32.821 25.924q2.786 1.015 5.606 1.93l5.473 1.136.034.404c.183 2.301.62 2.564-.479 4.149l-1.497.315c-12.255-3.381-19.482-5.976-30.889-11.877-18.429-12.783-25.624-47.914-30.685-69.145l-.997-3.208z"/><defs><linearGradient id="d" x1="687.227" x2="677.047" y1="319.872" y2="323.671" gradientUnits="userSpaceOnUse"><stop offset="0" stop-color="#fffddc"/><stop offset="1" stop-color="#fdfff6"/></linearGradient></defs><path fill="url(#d)" d="M672.297 283.705c5.061 21.231 12.256 56.362 30.685 69.145l-1.842 1.128c-8.005.408-17.083-9.949-19.621-16.603-4.059-10.641-12.926-43.729-9.222-53.67"/><path fill="#8b8578" d="M735.847 360.263c6.511 1.962 12.759 4.186 18.989 6.911 1.07.467 2.438.505 3.065.831l.117.358c.537 1.589.724 1.89 1.662 3.268-.239 3.322-3.115 3.853-6.063 5.419-1.603-.557-3.177-1.026-4.798-1.517 2.504-.868 4.148-1.486 6.547-2.601l1.358-.427-.248-.948c-3.066-1.64-17.706-5.175-22.605-6.83l1.497-.315c1.099-1.585.662-1.848.479-4.149"/><path fill="#9e855b" d="m582.738 371.6 3.186-.698 1.156 1.238c4.444.141 23.894 1.461 27.13 3.044l-2.843-.55c7.539 2.085 14.289 3.932 21.676 6.572 8.551-.184 27.651 20.598 28.619 27.862.665 4.274 1.889 10.559 3.419 14.503 1.585 4.085 4.493 8.712 5.364 12.907.983 4.74-.138 19.466 2.615 22.991-.634 2.427-.741 3.288-2.318 5.339-1.2-2.069-1.965-5.034-2.686-7.385-2.244-12.532-9.648-37.353-15.386-48.535-11.493-22.397-45.903-29.083-68.836-35.676-.595-.427-.702-.883-1.096-1.612"/><path fill="#ac9263" d="M654.635 404.173c3.408 2.194 4.656 2.644 6.282 6.36.209 1.825.97 6.297.317 7.701-2.126-2.648-3.789-9.473-6.288-13.562z"/><path fill="#624f34" d="M582.738 371.6c4.083-7.791 35.031-12.646 43.391-17.663 4.992-2.996 10.767-3.809 15.576-9.132 16.299-18.042 18.338-44.672 27.288-66.098l1.538-.103.769 1.893c-3.657 17.035-12.242 47.196-20.567 61.343-3.899 4.839-6.367 7.41-11.691 11-1.227.828-4.635 2.606-5.43 3.274-16.583 7.209-27.651 9.976-45 14.362l-2.688.426z"/><path fill="#624f34" d="M748.819 375.533c1.621.491 3.195.96 4.798 1.517a645 645 0 0 1-21.233 8.218c-19.324 7-31.077 9.948-40.591 29.744-5.257 10.938-13.675 43.835-19.674 49.655-.631.134-.864.291-1.377.141 1.577-2.051 1.684-2.912 2.318-5.339 5.181-19.285 9.629-44.59 23.239-60.228 7.744-8.898 23.948-14.753 34.96-18.787 5.812-1.562 11.843-3.099 17.56-4.921"/><defs><linearGradient id="e" x1="620.673" x2="636.203" y1="421.935" y2="392.777" gradientUnits="userSpaceOnUse"><stop offset="0" stop-color="#3f3a29"/><stop offset="1" stop-color="#5a5238"/></linearGradient></defs><path fill="url(#e)" d="M583.834 373.212c22.933 6.593 57.343 13.279 68.836 35.676 5.738 11.182 13.142 36.003 15.386 48.535.041 1.886-.048 4.129-.079 6.046l-.443.168c-8.674-18.851-9.721-39.53-20.738-56.559-8.619-13.323-30.395-19.715-44.384-25.083-5.354-2.055-15.666-3.5-18.578-8.783"/><path fill="#2c2c2c" d="M691.913 330.869c4.367 1.8 9.415 13.455 16.537 17.26 6.019 3.216 22.044 4.496 21.89 10.594q-2.82-.915-5.606-1.93c-15.098-5.524-25.744-10.649-32.821-25.924"/><path fill="#a9949f" d="M619.616 255.232c27.65-11.526 59.548-14.622 88.42-5.602 3.375 1.054 7.036 2.39 10.502 2.986l1.966 1.799c-.522 5.481-9.399 22.2-15.168 23.656-14.406-4.497-38.455-6.883-53.247-3.51-5.143-1.135-20.428.64-26.757 1.061-.787-5.136-4.069-15.064-5.716-20.39"/><defs><linearGradient id="f" x1="734.484" x2="727.627" y1="258.267" y2="286.318" gradientUnits="userSpaceOnUse"><stop offset="0" stop-color="#514139"/><stop offset="1" stop-color="#7f867c"/></linearGradient></defs><path fill="url(#f)" d="M718.538 252.616c8.413.152 25.649 14.485 31.851 19.89 3.226 2.812 6.573 6.796 10.205 8.235l-6.352.776c-7.835 1.574-16.41 3.288-24.031 5.545l-4.426 1.485-1.332.235c-3.7-4.794-13.37-8.766-19.117-10.711 5.769-1.456 14.646-18.175 15.168-23.656z"/><path fill="#8b8578" d="M730.211 287.062q.643-1.115 1.437-2.127c3.127-3.908 12.968-2.94 19.049-3.654-.989-.774-14.529.698-16.74-.813 3.864-2.449 16.29-1.439 20.285 1.049-7.835 1.574-16.41 3.288-24.031 5.545"/><defs><linearGradient id="g" x1="735.832" x2="560.028" y1="298.627" y2="503.309" gradientUnits="userSpaceOnUse"><stop offset="0" stop-color="#2f2f2f"/><stop offset="1" stop-color="#4b4b4a"/></linearGradient></defs><path fill="url(#g)" d="M590.769 224.191c-1.788 4.238-20.037 13.705-24.317 19.684-4.164 5.816-1.918 7.924-4.844 14.429-2.929 6.51-7.492 10.321-12.514 15.115l.317 1.241a138 138 0 0 0-5.413 6.64c-12.088 15.665-18.105 31.837-23.527 50.769-16.759 58.512 2.954 126.606 51.356 164.42 5.411 4.228 29.435 20.599 35.037 21.14 5.066 2.882 15.411 6.533 21.167 7.745 26.441 7.766 60.815 7.685 87.058-.768a162.3 162.3 0 0 0 94.176-80.337c.18 1.377-.133.836.954 1.681 2.414-.149 5.5-2.409 7.69-3.761 3.146-7.302 1.052-8.273 2.353-14.541.977-4.707 5.793-11.836 7.154-17.123 2.09-8.12 2.015-16.409 3.58-24.411l.088-.429.767 3.091c.436-2.096.361-4.186.391-6.335.134 2.544.123 6.761 1.016 8.964-.06 7.087-2.099 16.595-3.757 23.45a182.86 182.86 0 0 1-49.034 87.916 163.2 163.2 0 0 1-72.994 41.495q-1.346.317-2.696.611c-47.449 10.342-88.721.885-129.825-24.999-31.687-19.954-62.374-56.82-70.355-94.114-4.754-12.851-5.193-40.321-4.075-53.79 4.378-52.729 43.25-121.783 90.247-147.783"/><path fill="#434953" d="M504.597 425.764c.338-3.586.447-5.338.267-8.914l.511-.171c2.116 2.737 4.329 13.815 5.98 18.374a146 146 0 0 0 8.113 18.42c26.402 50.812 73.361 82.903 129.925 90.176a155.5 155.5 0 0 0 33.204.442c6.426-.617 12.906-1.516 19.35-1.744 1.549-.055 3.976 1.412 5.526 1.919q-1.346.317-2.696.611c-47.449 10.342-88.721.885-129.825-24.999-31.687-19.954-62.374-56.82-70.355-94.114"/><path fill="#3f383e" d="M543.998 281.3c.394-3.575.935-7.462 5.096-7.881l.317 1.241a138 138 0 0 0-5.413 6.64"/><path fill="#2c2c2c" d="M590.769 224.191c34.669-20.89 85.058-21.889 123.727-13.321 19.793 4.386 58.029 22.718 70.503 39.187 29.82 29.131 49.06 81.638 49.475 122.689a129 129 0 0 1-1.216 18.659c-.893-2.203-.882-6.42-1.016-8.964-.03 2.149.045 4.239-.391 6.335l-.767-3.091-.088.429c-1.565 8.002-1.49 16.291-3.58 24.411-1.361 5.287-6.177 12.416-7.154 17.123-1.301 6.268.793 7.239-2.353 14.541-2.19 1.352-5.276 3.612-7.69 3.761-1.087-.845-.774-.304-.954-1.681 10.741-22.639 16.806-43.542 17.518-68.863a155.7 155.7 0 0 0-42.569-111.873c-26.32-27.641-68.223-46.293-106.279-47.123-43.576-.951-88.876 15.815-118.565 48.224-3.183 3.474-6.548 6.751-9.959 10.026l-.317-1.241c5.022-4.794 9.585-8.605 12.514-15.115 2.926-6.505.68-8.613 4.844-14.429 4.28-5.979 22.529-15.446 24.317-19.684"/><path fill="#3f383e" d="M831.084 385.685c.986-2.944.752-11.428.758-14.883.056-33.138-12.772-66.224-28.084-95.14-3.416-6.452-18.911-21.176-18.759-25.605 29.82 29.131 49.06 81.638 49.475 122.689a129 129 0 0 1-1.216 18.659c-.893-2.203-.882-6.42-1.016-8.964-.03 2.149.045 4.239-.391 6.335z"/><path fill="#e091a7" d="m559.096 163.395 1.051.999c3.729-1.316 12.706-7.008 14.549-6.439-4.572 6.268-25.289 16.537-20.677 24.973 7.521-.188 19.805-5.996 27.614-8.031 12.206-3.182 25.272-7.91 37.585-10.34 4.606-1.507 25.552-3.698 29.365-2.116l.001.298c-1.396-.019-1.991.032-3.283.571-2.033-.837-6.649-.457-8.624.174-1.576 3.298-1.581 2.998-5.268 2.168l-.786.555 2.298 1.438c-5.145.4-6.206-1.618-9.093 2.605-7.12 1.046-12.05 1.872-18.364 5.58-3.865 2.269-1.547-.294-5.149.799l1.636.666-.233.255-.948-1.325.437 1.636-7.111 3.541a17 17 0 0 0-1.325-1.669l-1.762.459c-2.519 7.727-4.274 3.371-7.052 7.915l-.025.845.771.409c2.72-.874 4.566-2.503 6.846-4.224.966.498.586.13.966 1.301.23-.279.678-.748.788-1.043 1.494-.294 2.751-.589 4.288-.656-.445.667-12.219 5.821-12.895 5.64-6.504-1.739-5.959-1.198-12.697 2.766l.224 1.02c1.936.742 2.899.317 4.952-.111-1.947 1.665-1.061 1.315-3.357 1.628l-1.741-.844c-1.187 1.354.458 2.061-1.148 3.111-6.217 4.063-12.124 5.411-16.299 11.904-6.399 5.253-14.435 11.076-20.271 16.688a207.77 207.77 0 0 0-63.179 130.431 199.02 199.02 0 0 0 45.574 145.29c11.845 14.364 33.632 33.933 49.994 42.787 3.597 2.552 17.079 10.182 21.031 11.321 3.653-.348 20.682 7.106 25.73 8.646 36.777 11.217 75.847 10.954 112.769.618 4.578-1.281 24.809-9.665 27.329-9.082l.214-.214c3.2-1.064 12.069-5.808 15.223-7.548 25.663-14.164 43.874-31.923 62.224-54.25l.951.436c1.902-2.534 6.01-7.625 7.459-9.988l.565-.027c6.241 7.248 6.939 21.612 9.107 30.886.596 2.548-5.452 16.111-5.171 17.42l.756.633c2.548-2.545 2.36-2.261 5.354-2.824-3.951 4.769-15.864 18.024-20.656 20.946-5.325 5.967-16.26 13.971-23.129 18.82-10.817 7.794-25.052 15.742-37.129 21.214a237.53 237.53 0 0 1-182.389 5.378c-57.184-21.648-106.399-68.605-131.472-124.329a239.56 239.56 0 0 1-5.305-184.217c19.475-52.211 59.675-99.204 108.887-125.493"/><defs><linearGradient id="h" x1="533.927" x2="631.183" y1="566.904" y2="426.73" gradientUnits="userSpaceOnUse"><stop offset="0" stop-color="#b45e5a"/><stop offset="1" stop-color="#c48799"/></linearGradient></defs><path fill="url(#h)" d="M450.209 288.888c1.558 4.732-1.066 5.44-1.233 9.522-.067 1.65 2.006 2.924 2.08 6.104 1.664-4.184 1.593-5.12 3.779-9.652 4.362-9.047 14.169-35.252 20.783-41.244l.558.561-.388.486c-2.854 3.649-6.023 10.812-8.485 15.18-18.985 33.693-30.278 81.887-24.764 120.603q.312 2.115.849 4.185l1.061.784a269.8 269.8 0 0 1 7.21-73.154c.425-1.752 1.471-7.393 2.231-8.358.04 3.817-1.243 7.068-2.274 10.803-7.543 27.316-4.384 46.555.075 74.271 8.747 54.359 37.174 108.952 80.765 143.504 4.971 3.955 9.635 9.075 14.899 12.742 24.834 16.635 51.746 27.126 80.114 35.206l.418.185c5.504-.392 17.745 2.962 23.176 3.56 19.024 2.095 37.262 1.867 56.239-.413 3.937-.487 9.149.417 12.925-.381 19.795-4.185 39.526-9.16 58.609-15.948 9.302-3.309 18.497-7.066 27.668-6.592-10.817 7.794-25.052 15.742-37.129 21.214a237.53 237.53 0 0 1-182.389 5.378c-57.184-21.648-106.399-68.605-131.472-124.329a239.56 239.56 0 0 1-5.305-184.217"/><path fill="#c5696d" d="m627.887 590.616-.119.857c1.11 1.601 19.054 3.366 22.281 5.408.3.19 3.216.961 3.575.915 13.328-1.725 26.148 1.279 39.408 1.324 2.69.011 5.722-.932 7.902.448-2.195.966-7.276.675-10.05.744-7.3 5.709-55.965-.965-67.095-3.389-82.048-17.871-147.446-82.713-171.732-162.285-.401-1.311.171-2.702 1.005-3.678 2.041 3.012 2.914 13.045 4.446 14.061l.5-1.618c.746 2.624 1.416 4.895 2.332 7.463-.392-2.007-.521-2.75-.543-4.788l.696-.205c-.213 2.69 1.579 4.302 2.599 6.382.175 1.166-1.072 4.921-.324 5.816 10.618 12.707 15.403 28.801 24.813 42.424 1.885 2.729 2.181 2.118 5.356 2.921l.272.981c-1.575.507-1.03.061-1.986 1.08 3.404 3.793 7.304 8.198 10.381 12.244 1.37 2.493 4.923 3.615 6.634 5.535 14.782 16.588 30.831 30.754 50.144 41.88 10.55 6.078 16.731 10.755 28.681 14.137l-.482 1.352c5.538 2.097 13.64 3.108 19.109 5.286l-3.057.963.542.652c6.599 2.023 17.424 3.667 24.294 2.905z"/><path fill="#87544b" d="M587.779 556.37c3.653-.348 20.682 7.106 25.73 8.646 36.777 11.217 75.847 10.954 112.769.618 4.578-1.281 24.809-9.665 27.329-9.082-3.545 1.971-10.488 4.643-14.36 6.082a197.08 197.08 0 0 1-151.468-6.264"/><path fill="#a9949f" d="M844.935 533.9c2.548-2.545 2.36-2.261 5.354-2.824-3.951 4.769-15.864 18.024-20.656 20.946.408-1.391 13.519-16.347 15.302-18.122"/><defs><linearGradient id="i" x1="699.163" x2="849.308" y1="302.927" y2="211.753" gradientUnits="userSpaceOnUse"><stop offset="0" stop-color="#d9a5d3"/><stop offset="1" stop-color="#93eff2"/></linearGradient></defs><path fill="url(#i)" d="M595.57 147.218c6.792-2.843 18.317-5.795 25.534-7.389a236.8 236.8 0 0 1 137.879 11.398 240.13 240.13 0 0 1 131.421 129.759 244.5 244.5 0 0 1 18.625 94.176c.009 2.63-.059 13.519-.804 15.634-.701 1.731-.721 2.525-.955 4.359-.654-1.716.38-19.195.483-22.154l-1.017-.202c-6.704 3.836-8.235 29.578-16.119 28.647-2.582-3.56-1.363-27.729-2.657-35.136-4.88-27.945-10.869-56.799-27.132-80.622-2.861-4.192-.842-11.501-4.347-14.784-6.517-6.104-7.589-15.362-13.661-21.98-12.621-14.432-22.906-30.485-39.504-40.852-2.854-2.161-6.559-7.33-9.481-9.017-13.611-7.752-28.104-17.254-42.732-22.895-15.859-6.115-51.78-16.571-68.354-14.05-8.429-.676-33.632 2.133-37.448 1.2 1.292-.539 1.887-.59 3.283-.571l-.001-.298c-3.813-1.582-24.759.609-29.365 2.116-12.313 2.43-25.379 7.158-37.585 10.34-7.809 2.035-20.093 7.843-27.614 8.031-4.612-8.436 16.105-18.705 20.677-24.973-1.843-.569-10.82 5.123-14.549 6.439l-1.051-.999c9.675-5.486 26.245-13.47 36.474-16.177"/><defs><linearGradient id="j" x1="556.337" x2="695.946" y1="188.387" y2="128.034" gradientUnits="userSpaceOnUse"><stop offset="0" stop-color="#e299da"/><stop offset="1" stop-color="#eef3ff"/></linearGradient></defs><path fill="url(#j)" d="M595.57 147.218c3.168.4 6.396-.679 8.471-.328 2.181.369 5.287 4.896 8.812 4.406 7.378-1.025 14.91-3.611 22.371-4.897 18.833-3.245 34.67-3.462 53.6-2.036 7.072 3.709 9.65 2.455 16.757 3.117-.736.232-6.153 3.005-7.307 3.615 5.3 1.341 16.092 2.332 19.528 3.432-1.056.513-8.818-.759-10.341-1.019-30.365-5.191-60.518-3.003-90.398 3.861-3.228.742-5.953 2.164-9.149 2.859l-.363.501c3.293.42 4.132-2.072 6.368-1.27l.107 2.583.581.14c2.342.578 2.743.756 4.611 2.375-12.313 2.43-25.379 7.158-37.585 10.34-7.809 2.035-20.093 7.843-27.614 8.031-4.612-8.436 16.105-18.705 20.677-24.973-1.843-.569-10.82 5.123-14.549 6.439l-1.051-.999c9.675-5.486 26.245-13.47 36.474-16.177"/><path fill="#e6e9f9" d="M688.824 144.363c14.458.859 29.715 3.867 43.615 8.028 5.644 1.689 12.361 5.058 17.745 6.634-1.904.667-15.113-4.698-17.803-5.558-8.567-2.738-17.802-5.343-26.8-5.987-7.107-.662-9.685.592-16.757-3.117"/><path fill="#92b2c0" d="M682.749 162.11c16.574-2.521 52.495 7.935 68.354 14.05 14.628 5.641 29.121 15.143 42.732 22.895 2.922 1.687 6.627 6.856 9.481 9.017 16.598 10.367 26.883 26.42 39.504 40.852 6.072 6.618 7.144 15.876 13.661 21.98 3.505 3.283 1.486 10.592 4.347 14.784 16.263 23.823 22.252 52.677 27.132 80.622 1.294 7.407.075 31.576 2.657 35.136 7.884.931 9.415-24.811 16.119-28.647l1.017.202c-.103 2.959-1.137 20.438-.483 22.154.234-1.834.254-2.628.955-4.359-.077 37.437-17.778 83.11-37.909 114.079-4.127 6.349-14.479 21.199-20.027 26.201-2.994.563-2.806.279-5.354 2.824l-.756-.633c-.281-1.309 5.767-14.872 5.171-17.42-2.168-9.274-2.866-23.638-9.107-30.886l-.565.027c-1.449 2.363-5.557 7.454-7.459 9.988l-.951-.436c15.654-22.812 21.992-32.985 30.917-60.467 1.674-6.407 3.336-12.826 4.716-19.301 10.683-50.108.294-108.555-28.426-151.427a204.95 204.95 0 0 0-116.141-84.648c-14.163-3.817-20.187-3.295-32.647-5.794l-.398-.083c3.963-.399 11.033.448 14.961.957.833-.646.939-.96 1.455-1.854l.174-.306a666 666 0 0 0 17.994-.099 316 316 0 0 0-21.05-4.604c-3.267-.632-7.542-1.012-10.45-2.043-2.567-.495-7.936-1.304-9.624-2.761"/><path fill="#7e90a1" d="M723.873 171.518c81.502 21.295 142.524 92.781 151.178 176.648.429 4.154 2.16 19.806.211 22.697-.059-2.418-.847-18.002-1.187-19.853-5.257-28.612-14.436-56.219-27.866-82.061-1.7-3.271-7.115-9.749-9.262-13.032-6.903-10.663-14.574-19.845-23.991-28.407-2.552-2.322-5.246-4.507-7.749-6.846-3.253-3.039-10.333-12.728-15.936-11.144 10.32 6.65 14.1 11.609 22.408 19.41 28.199 26.479 47.755 63.104 56.026 101.116a208.1 208.1 0 0 1 .45 86.092c-.902 4.457-3.081 14.543-5.97 17.935 1.674-6.407 3.336-12.826 4.716-19.301 10.683-50.108.294-108.555-28.426-151.427a204.95 204.95 0 0 0-116.141-84.648c-14.163-3.817-20.187-3.295-32.647-5.794l-.398-.083c3.963-.399 11.033.448 14.961.957.833-.646.939-.96 1.455-1.854l.174-.306a666 666 0 0 0 17.994-.099"/><path fill="#87544b" d="M645.301 163.31c3.816.933 29.019-1.876 37.448-1.2 1.688 1.457 7.057 2.266 9.624 2.761 2.908 1.031 7.183 1.411 10.45 2.043a316 316 0 0 1 21.05 4.604 666 666 0 0 1-17.994.099l-.174.306c-.516.894-.622 1.208-1.455 1.854-3.928-.509-10.998-1.356-14.961-.957-9.985-.501-19.342-.359-29.328-.211q-5.184.528-10.375.982l.112 1.77c-16.212 1.933-25.275 4.154-40.508 8.834 2.34.802 23.135-4.636 27.76-5.455a164 164 0 0 1 29.532-2.708c4.601 1.26 9.191 2.387 13.841 3.46 3.2.739 6.508.206 9.241 1.447-3.38.522-4.908-1.661-7.65.607a193.85 193.85 0 0 0-138.029 48.061c-3.648 3.258-14.203 13.129-16.182 17.306-4.197 5.827-10.092 12.325-13.843 18.091-17.268 26.541-26.736 51.661-31.433 82.698l-1.324.61c-.293-1.256-.207-1.998-.985-2.668-1.077 1.501-1.122 6.135-1.36 8.152-3.827 32.496 1.242 62.784 12.14 93.365 14.697 31.341 28.568 53.08 56.14 75.554 2.755 2.245 11.016 9.023 13.685 10.235-2.582 1.185-1.981.477-2.963 2.511.839 4.721 8.583 6.506 8.988 9.588-16.362-8.854-38.149-28.423-49.994-42.787a199.02 199.02 0 0 1-45.574-145.29 207.77 207.77 0 0 1 63.179-130.431c5.836-5.612 13.872-11.435 20.271-16.688 4.175-6.493 10.082-7.841 16.299-11.904 1.606-1.05-.039-1.757 1.148-3.111l1.741.844c2.296-.313 1.41.037 3.357-1.628-2.053.428-3.016.853-4.952.111l-.224-1.02c6.738-3.964 6.193-4.505 12.697-2.766.676.181 12.45-4.973 12.895-5.64-1.537.067-2.794.362-4.288.656-.11.295-.558.764-.788 1.043-.38-1.171 0-.803-.966-1.301-2.28 1.721-4.126 3.35-6.846 4.224l-.771-.409.025-.845c2.778-4.544 4.533-.188 7.052-7.915l1.762-.459a17 17 0 0 1 1.325 1.669l7.111-3.541-.437-1.636.948 1.325.233-.255-1.636-.666c3.602-1.093 1.284 1.47 5.149-.799 6.314-3.708 11.244-4.534 18.364-5.58 2.887-4.223 3.948-2.205 9.093-2.605l-2.298-1.438.786-.555c3.687.83 3.692 1.13 5.268-2.168 1.975-.631 6.591-1.011 8.624-.174"/><defs><linearGradient id="k" x1="588.073" x2="520.381" y1="301.259" y2="244.615" gradientUnits="userSpaceOnUse"><stop offset="0" stop-color="#9c7e56"/><stop offset="1" stop-color="#b69674"/></linearGradient></defs><path fill="url(#k)" d="M609.19 184.195c2.34.802 23.135-4.636 27.76-5.455a164 164 0 0 1 29.532-2.708c4.601 1.26 9.191 2.387 13.841 3.46 3.2.739 6.508.206 9.241 1.447-3.38.522-4.908-1.661-7.65.607a193.85 193.85 0 0 0-138.029 48.061c-3.648 3.258-14.203 13.129-16.182 17.306-4.197 5.827-10.092 12.325-13.843 18.091-17.268 26.541-26.736 51.661-31.433 82.698l-1.324.61c-.293-1.256-.207-1.998-.985-2.668-1.077 1.501-1.122 6.135-1.36 8.152-3.827 32.496 1.242 62.784 12.14 93.365-5.861-3.497-6.975-19.204-9.974-25.214-1.822-3.202-4.365-2.954-5.245-7.077-20.559-96.331 38.451-201.508 133.511-230.675"/><path fill="#ba7fb3" d="M645.301 163.31c3.816.933 29.019-1.876 37.448-1.2 1.688 1.457 7.057 2.266 9.624 2.761-4.242.101-13.636.058-17.459.539-22.105.84-63.128 8.096-81.611 19.985-.11.295-.558.764-.788 1.043-.38-1.171 0-.803-.966-1.301-2.28 1.721-4.126 3.35-6.846 4.224l-.771-.409.025-.845c2.778-4.544 4.533-.188 7.052-7.915l1.762-.459a17 17 0 0 1 1.325 1.669l7.111-3.541-.437-1.636.948 1.325.233-.255-1.636-.666c3.602-1.093 1.284 1.47 5.149-.799 6.314-3.708 11.244-4.534 18.364-5.58 2.887-4.223 3.948-2.205 9.093-2.605l-2.298-1.438.786-.555c3.687.83 3.692 1.13 5.268-2.168 1.975-.631 6.591-1.011 8.624-.174"/><path fill="#a9949f" d="M692.373 164.871c2.908 1.031 7.183 1.411 10.45 2.043a316 316 0 0 1 21.05 4.604 666 666 0 0 1-17.994.099l-.174.306c-.516.894-.622 1.208-1.455 1.854-3.928-.509-10.998-1.356-14.961-.957-9.985-.501-19.342-.359-29.328-.211-3.527-1.377-7.636-.732-11.598-.614-1.058-.965-1.079-.874-2.451-1.022 1.603.029 2.778-1.191 4.203-1.319 8.549-.772 16.43-2.447 24.799-4.244 3.823-.481 13.217-.438 17.459-.539"/><path fill="#ae7bab" d="M593.303 185.395c18.483-11.889 59.506-19.145 81.611-19.985-8.369 1.797-16.25 3.472-24.799 4.244-1.425.128-2.6 1.348-4.203 1.319-6.478.518-22.072 5.178-27.203 8.34-29.758 10.093-37.006 13.033-64.079 30.54 4.175-6.493 10.082-7.841 16.299-11.904 1.606-1.05-.039-1.757 1.148-3.111l1.741.844c2.296-.313 1.41.037 3.357-1.628-2.053.428-3.016.853-4.952.111l-.224-1.02c6.738-3.964 6.193-4.505 12.697-2.766.676.181 12.45-4.973 12.895-5.64-1.537.067-2.794.362-4.288.656"/><path fill="#ba7fb3" d="M645.912 170.973c1.372.148 1.393.057 2.451 1.022 3.962-.118 8.071-.763 11.598.614q-5.184.528-10.375.982c-11.097.966-20.107 3.418-30.877 5.722 5.131-3.162 20.725-7.822 27.203-8.34"/><path fill="#2c2c2c" d="M527.703 246.913c1.979-4.177 12.534-14.048 16.182-17.306a193.85 193.85 0 0 1 138.029-48.061c23.644 1.641 31.312 4.324 53.272 10.646 6.346 2.649 12.88 5.277 19.067 8.248l5.871 3.038c21.114 12.07 37.765 24.427 53.908 42.697 40.668 46.028 56.963 109.745 43.384 169.631-.876 3.864-3.026 12.935-4.681 16.238-2.138 1.666-1.785 4.188-3.806 6.909.377-4.181 1.852-6.088 2.804-9.964 1.286-5.239 1.987-10.799 2.61-16.159.881-7.587-1.704-15.694-2.34-23.246-1.23-14.614-2.337-29.624-6.115-43.905l1.261-1.822c-1.158-3.412-2.38-1.538-3.323-5.055-1.594-5.948-3.564-12.159-5.236-17.984 1.297.885.651.801 1.897.684-.178-3.025-2.651-9.872-3.509-13.069-.746-2.315-3.07-2.381-4.264-4.464-2.685-4.687-8.125-25.947-13.004-27.438-1.206-1.534-4.335-8.083-5.591-10.197-28.951-48.698-87.161-81.131-143.105-82.499a186.7 186.7 0 0 0-117.33 39.202c-10.753 8.379-16.488 14.861-25.981 23.876"/><path fill="#e6dcbe" d="M659.961 172.609c9.986-.148 19.343-.29 29.328.211l.398.083c12.46 2.499 18.484 1.977 32.647 5.794a204.95 204.95 0 0 1 116.141 84.648c28.72 42.872 39.109 101.319 28.426 151.427-1.38 6.475-3.042 12.894-4.716 19.301-8.925 27.482-15.263 37.655-30.917 60.467-18.35 22.327-36.561 40.086-62.224 54.25-3.154 1.74-12.023 6.484-15.223 7.548 1.275-1.52 14.486-8.473 17.093-9.92 10.966-6.086 20.405-13.37 29.834-21.57a199.47 199.47 0 0 0 58.829-88.801c1.712-5.248 4.744-14.627 5.103-19.884-.335-3.334 2.612-15.367 1.637-17.24-1.167 3.431-1.631 5.653-2.364 9.19-.171-9.604 2.685-13.085 3.186-20.377a201.7 201.7 0 0 0-8.424-72.015 195.24 195.24 0 0 0-66.964-97.272c-5.099-3.923-11.764-9.053-17.361-12.012-5.556-.399-8.31-2.438-14.266-2.959l-5.871-3.038c-6.187-2.971-12.721-5.599-19.067-8.248-21.96-6.322-29.628-9.005-53.272-10.646 2.742-2.268 4.27-.085 7.65-.607-2.733-1.241-6.041-.708-9.241-1.447-4.65-1.073-9.24-2.2-13.841-3.46a164 164 0 0 0-29.532 2.708c-4.625.819-25.42 6.257-27.76 5.455 15.233-4.68 24.296-6.901 40.508-8.834l-.112-1.77q5.191-.454 10.375-.982"/><path fill="#3f383e" d="M659.961 172.609c9.986-.148 19.343-.29 29.328.211l.398.083c12.46 2.499 18.484 1.977 32.647 5.794a204.95 204.95 0 0 1 116.141 84.648c28.72 42.872 39.109 101.319 28.426 151.427-1.38 6.475-3.042 12.894-4.716 19.301-8.925 27.482-15.263 37.655-30.917 60.467-18.35 22.327-36.561 40.086-62.224 54.25-3.154 1.74-12.023 6.484-15.223 7.548 1.275-1.52 14.486-8.473 17.093-9.92 10.966-6.086 20.405-13.37 29.834-21.57a199.47 199.47 0 0 0 58.829-88.801c1.712-5.248 4.744-14.627 5.103-19.884 5.126-20.773 5.774-48.628 2.891-69.717a197.6 197.6 0 0 0-76.636-131.312c-40.046-30.397-90.983-46.623-141.237-39.773l-.112-1.77q5.191-.454 10.375-.982"/><path fill="#9e855b" d="M666.482 176.032c31.956-.604 59.521 4.754 88.362 19.044 5.952 2.949 14.272 7.322 19.546 11.361-5.556-.399-8.31-2.438-14.266-2.959l-5.871-3.038c-6.187-2.971-12.721-5.599-19.067-8.248-21.96-6.322-29.628-9.005-53.272-10.646 2.742-2.268 4.27-.085 7.65-.607-2.733-1.241-6.041-.708-9.241-1.447-4.65-1.073-9.24-2.2-13.841-3.46"/><path fill="#3f383e" d="M819.71 276.531c4.879 1.491 10.319 22.751 13.004 27.438 1.194 2.083 3.518 2.149 4.264 4.464.858 3.197 3.331 10.044 3.509 13.069-1.246.117-.6.201-1.897-.684 1.672 5.825 3.642 12.036 5.236 17.984.943 3.517 2.165 1.643 3.323 5.055l-1.261 1.822c3.778 14.281 4.885 29.291 6.115 43.905.636 7.552 3.221 15.659 2.34 23.246-.623 5.36-1.324 10.92-2.61 16.159-.952 3.876-2.427 5.783-2.804 9.964 2.021-2.721 1.668-5.243 3.806-6.909-9.116 39.177-45.766 83.186-79.728 103.939-3.66 2.237-14.545 7.639-17.119 9.938l-.519 1.299c-10.083 7.945-41.878 15.805-54.531 17.986-47.415 8.17-100.895-4.424-140.115-32.256-2.669-1.212-10.93-7.99-13.685-10.235-27.572-22.474-41.443-44.213-56.14-75.554-10.898-30.581-15.967-60.869-12.14-93.365.238-2.017.283-6.651 1.36-8.152.778.67.692 1.412.985 2.668l1.324-.61c-4.558 38.949-1.116 67.877 14.724 104.359 3.283 7.561 10.71 19.886 13.07 25.638l.53.695c3.014 2.915 12.604 16.919 16.92 21.645 20.896 22.876 47.319 41.055 76.164 52.123a187.97 187.97 0 0 0 143.907-3.99c41.987-18.784 77.306-53.619 93.399-96.99 21.616-58.259 2.83-120.642-21.431-174.651"/><path fill="#e6dcbe" d="M490.898 447.161c-10.898-30.581-15.967-60.869-12.14-93.365.238-2.017.283-6.651 1.36-8.152.778.67.692 1.412.985 2.668l1.324-.61c-4.558 38.949-1.116 67.877 14.724 104.359 3.283 7.561 10.71 19.886 13.07 25.638l.53.695c2.944 6.325 8.708 13.181 13.132 18.545 51.636 62.609 140.091 85.518 215.659 56.015 5.53-2.159 10.902-4.571 16.346-7.033l-.519 1.299c-10.083 7.945-41.878 15.805-54.531 17.986-47.415 8.17-100.895-4.424-140.115-32.256-2.669-1.212-10.93-7.99-13.685-10.235-27.572-22.474-41.443-44.213-56.14-75.554"/><path fill="#8b8578" d="m481.103 348.312 1.324-.61c-4.558 38.949-1.116 67.877 14.724 104.359 3.283 7.561 10.71 19.886 13.07 25.638-.876-.686-1.385-1.348-2.006-2.276-23.029-34.429-34.096-86.728-27.112-127.111"/></svg>